<svg width="40" height="37" viewBox="0 0 40 37" fill="none" xmlns="http://www.w3.org/2000/svg">
<path d="M8.88875 28.2221V30.2779C8.88875 30.6712 8.75569 31.0011 8.48958 31.2675C8.22347 31.5336 7.89361 31.6667 7.5 31.6667H6.38875C5.99542 31.6667 5.66556 31.5336 5.39917 31.2675C5.13306 31.0011 5 30.6712 5 30.2779V16.8333L8.52792 6.38875C8.67597 5.96292 8.92819 5.625 9.28458 5.375C9.64125 5.125 10.0464 5 10.5 5H29.5C29.9536 5 30.3587 5.125 30.7154 5.375C31.0718 5.625 31.324 5.96292 31.4721 6.38875L35 16.8333V30.2779C35 30.6712 34.8669 31.0011 34.6008 31.2675C34.3344 31.5336 34.0046 31.6667 33.6112 31.6667H32.4721C32.074 31.6667 31.7476 31.5336 31.4929 31.2675C31.2385 31.0011 31.1112 30.6712 31.1112 30.2779V28.2221H8.88875ZM8.86125 14.0554H31.1388L29.0279 7.77792H10.9721L8.86125 14.0554ZM12.1046 23.5C12.7663 23.5 13.3217 23.2732 13.7708 22.8196C14.22 22.3657 14.4446 21.8147 14.4446 21.1667C14.4446 20.5031 14.2176 19.939 13.7638 19.4746C13.3101 19.0101 12.7593 18.7779 12.1113 18.7779C11.4476 18.7779 10.8836 19.0094 10.4192 19.4725C9.95444 19.9358 9.72208 20.4983 9.72208 21.16C9.72208 21.8219 9.95375 22.3774 10.4171 22.8263C10.8804 23.2754 11.4429 23.5 12.1046 23.5ZM27.9167 23.5C28.5803 23.5 29.1443 23.2732 29.6087 22.8196C30.0732 22.3657 30.3054 21.8147 30.3054 21.1667C30.3054 20.5031 30.0739 19.939 29.6108 19.4746C29.1475 19.0101 28.585 18.7779 27.9233 18.7779C27.2614 18.7779 26.706 19.0094 26.2571 19.4725C25.8079 19.9358 25.5833 20.4983 25.5833 21.16C25.5833 21.8219 25.8101 22.3774 26.2638 22.8263C26.7176 23.2754 27.2686 23.5 27.9167 23.5ZM7.77792 25.4446H32.2221V16.8333H7.77792V25.4446Z" fill="#327D9B"/>
</svg>
