<svg width="40" height="40" viewBox="0 0 40 40" fill="none" xmlns="http://www.w3.org/2000/svg">
<path d="M19.9997 36.6667C17.9719 36.4167 15.958 35.8681 13.958 35.0209C11.958 34.1737 10.1733 32.9584 8.60384 31.375C7.0344 29.7917 5.76356 27.7917 4.79134 25.375C3.81912 22.9584 3.33301 20.0556 3.33301 16.6667V15H4.99967C6.41634 15 7.87467 15.1806 9.37467 15.5417C10.8747 15.9028 12.2775 16.4445 13.583 17.1667C13.9163 14.7778 14.6733 12.3264 15.8538 9.81254C17.0344 7.29865 18.4163 5.13893 19.9997 3.33337C21.583 5.13893 22.965 7.29865 24.1455 9.81254C25.3261 12.3264 26.083 14.7778 26.4163 17.1667C27.7219 16.4445 29.1247 15.9028 30.6247 15.5417C32.1247 15.1806 33.583 15 34.9997 15H36.6663V16.6667C36.6663 20.0556 36.1802 22.9584 35.208 25.375C34.2358 27.7917 32.965 29.7917 31.3955 31.375C29.8261 32.9584 28.0483 34.1737 26.0622 35.0209C24.0761 35.8681 22.0552 36.4167 19.9997 36.6667ZM19.9163 33.25C19.6108 28.6389 18.2427 25.1528 15.8122 22.7917C13.3816 20.4306 10.3608 18.9723 6.74967 18.4167C7.05523 23.1667 8.46495 26.7084 10.9788 29.0417C13.4927 31.375 16.4719 32.7778 19.9163 33.25ZM19.9997 22.6667C20.4163 22.0556 20.9233 21.4237 21.5205 20.7709C22.1177 20.1181 22.6941 19.5556 23.2497 19.0834C23.1941 17.5 22.8816 15.8473 22.3122 14.125C21.7427 12.4028 20.9719 10.7223 19.9997 9.08337C19.0275 10.7223 18.2566 12.4028 17.6872 14.125C17.1177 15.8473 16.8052 17.5 16.7497 19.0834C17.3052 19.5556 17.8886 20.1181 18.4997 20.7709C19.1108 21.4237 19.6108 22.0556 19.9997 22.6667ZM23.2497 32.5C24.2775 32.1667 25.3469 31.6806 26.458 31.0417C27.5691 30.4028 28.6038 29.5348 29.5622 28.4375C30.5205 27.3403 31.34 25.9723 32.0205 24.3334C32.7011 22.6945 33.1108 20.7223 33.2497 18.4167C30.6386 18.8056 28.3469 19.6737 26.3747 21.0209C24.4025 22.3681 22.8886 24.0834 21.833 26.1667C22.1663 27.0556 22.4511 28.0278 22.6872 29.0834C22.9233 30.1389 23.1108 31.2778 23.2497 32.5Z" fill="#C7A841"/>
</svg>
