<svg width="73" height="80" viewBox="0 0 73 80" fill="none" xmlns="http://www.w3.org/2000/svg">
<path d="M71.5003 24.2707L62.3263 32.8291L65.0736 45.5705C65.2672 46.4636 65.2159 47.3993 64.926 48.2607C64.6362 49.122 64.1208 49.8707 63.4441 50.4132C62.7598 50.9631 61.9426 51.28 61.0946 51.3244C60.2465 51.3688 59.4054 51.1387 58.6762 50.6628L48.2475 43.8874L37.8187 50.6628C37.0896 51.1387 36.2484 51.3688 35.4004 51.3244C34.5524 51.28 33.7351 50.9631 33.0508 50.4132C32.3745 49.8704 31.8593 49.1216 31.5695 48.2604C31.2797 47.3992 31.2282 46.4636 31.4213 45.5705L34.1686 32.8291L24.9913 24.2707C24.3491 23.6708 23.8835 22.8765 23.653 21.9877C23.4224 21.0989 23.4374 20.1554 23.6959 19.2758C23.9544 18.3963 24.445 17.6201 25.1058 17.045C25.7666 16.4699 26.5682 16.1216 27.4095 16.0439L39.5427 14.9206L44.2748 2.84956C44.6087 2.00332 45.1618 1.28256 45.8657 0.776192C46.5697 0.269825 47.3936 0 48.2361 0C49.0785 0 49.9025 0.269825 50.6064 0.776192C51.3103 1.28256 51.8634 2.00332 52.1974 2.84956L56.9294 14.9277L69.0593 16.0439C69.9027 16.1163 70.7074 16.4608 71.3717 17.0338C72.0361 17.6068 72.5302 18.3825 72.7915 19.2628C73.0528 20.1432 73.0696 21.0885 72.8398 21.9793C72.6099 22.8701 72.1438 23.6663 71.5003 24.2671V24.2707ZM22.7035 35.065C22.4614 34.7998 22.1739 34.5894 21.8574 34.4458C21.5408 34.3022 21.2016 34.2283 20.859 34.2283C20.5163 34.2283 20.1771 34.3022 19.8606 34.4458C19.544 34.5894 19.2565 34.7998 19.0144 35.065L0.764052 55.0348C0.274838 55.5701 0 56.2961 0 57.0531C0 57.8102 0.274838 58.5362 0.764052 59.0715C1.25327 59.6068 1.91678 59.9076 2.60864 59.9076C3.30049 59.9076 3.96401 59.6068 4.45322 59.0715L22.7035 39.1018C22.9459 38.8368 23.1383 38.5222 23.2695 38.1759C23.4007 37.8295 23.4682 37.4583 23.4682 37.0834C23.4682 36.7085 23.4007 36.3373 23.2695 35.9909C23.1383 35.6446 22.9459 35.33 22.7035 35.065ZM27.9179 55.0348C27.6758 54.7695 27.3882 54.5591 27.0717 54.4155C26.7552 54.272 26.416 54.1981 26.0733 54.1981C25.7307 54.1981 25.3914 54.272 25.0749 54.4155C24.7584 54.5591 24.4709 54.7695 24.2287 55.0348L5.97843 75.0045C5.73619 75.2696 5.54404 75.5842 5.41295 75.9305C5.28185 76.2769 5.21438 76.648 5.21438 77.0229C5.21438 77.3977 5.28185 77.7689 5.41295 78.1152C5.54404 78.4615 5.73619 78.7762 5.97843 79.0413C6.46764 79.5766 7.13116 79.8773 7.82301 79.8773C8.16558 79.8773 8.5048 79.8035 8.8213 79.66C9.13779 79.5166 9.42537 79.3063 9.6676 79.0413L27.9179 59.0715C28.1603 58.8066 28.3526 58.4919 28.4838 58.1456C28.615 57.7993 28.6826 57.428 28.6826 57.0531C28.6826 56.6782 28.615 56.307 28.4838 55.9607C28.3526 55.6144 28.1603 55.2997 27.9179 55.0348ZM47.6967 55.0348L29.4464 75.0045C28.9572 75.5398 28.6823 76.2658 28.6823 77.0229C28.6823 77.7799 28.9572 78.506 29.4464 79.0413C29.9356 79.5766 30.5991 79.8773 31.291 79.8773C31.9828 79.8773 32.6463 79.5766 33.1355 79.0413L51.3859 59.0715C51.8751 58.5367 52.1501 57.8111 52.1504 57.0544C52.1507 56.2977 51.8763 55.5719 51.3875 55.0366C50.8987 54.5013 50.2356 54.2003 49.5441 54.2C48.8525 54.1997 48.1892 54.4999 47.7 55.0348H47.6967Z" fill="#291000"/>
</svg>
