<svg width="73" height="73" viewBox="0 0 73 73" fill="none" xmlns="http://www.w3.org/2000/svg">
<g clip-path="url(#clip0_1699_4077)">
<path d="M8.93965 31.852C8.25527 31.909 7.55664 31.9375 6.84375 31.9375C4.61953 31.9375 2.45234 31.6524 0.399219 31.0963C2.7375 15.2702 15.2701 2.73753 31.0963 0.399252C31.6523 2.45238 31.9375 4.61957 31.9375 6.84378C31.9375 7.54242 31.909 8.24105 31.852 8.93968C31.7521 10.1944 32.6789 11.2922 33.9336 11.4063C35.1883 11.5203 36.2861 10.5793 36.4002 9.32464C36.4715 8.51195 36.5 7.68499 36.5 6.85804C36.5 4.5055 36.2291 2.20999 35.7016 0.0285494C35.9582 0.0285494 36.2291 0.0142916 36.5 0.0142916C56.6605 3.37381e-05 73 16.3395 73 36.5C73 36.7709 73 37.0276 72.9857 37.2985C70.79 36.7852 68.5088 36.5 66.1562 36.5C65.3293 36.5 64.5023 36.5285 63.6897 36.5998C62.435 36.6996 61.4939 37.8118 61.608 39.0664C61.7221 40.3211 62.8199 41.2621 64.0746 41.1481C64.759 41.091 65.4576 41.0625 66.1705 41.0625C68.3947 41.0625 70.5619 41.3477 72.615 41.9037C70.2625 57.7299 57.7299 70.2625 41.9037 72.6008C41.3477 70.5477 41.0625 68.3805 41.0625 66.1563C41.0625 65.4576 41.091 64.759 41.148 64.0604C41.2479 62.8057 40.3211 61.7078 39.0664 61.5938C37.8117 61.4797 36.7139 62.4207 36.5998 63.6754C36.5285 64.4881 36.5 65.3151 36.5 66.142C36.5 68.4946 36.7709 70.7901 37.2984 72.9715C37.0418 72.9715 36.7709 72.9858 36.5 72.9858C16.3395 73 0 56.6606 0 36.5C0 36.2291 0 35.9725 0.0142578 35.7016C2.1957 36.2291 4.49121 36.5 6.84375 36.5C7.6707 36.5 8.49766 36.4715 9.31035 36.4002C10.565 36.3004 11.5061 35.1883 11.392 33.9336C11.2779 32.6789 10.1801 31.7379 8.92539 31.852H8.93965ZM17.2947 29.6563C16.1541 30.1838 15.6408 31.5383 16.1684 32.6789C16.6959 33.8196 18.0504 34.3328 19.191 33.8053C25.6355 30.8397 30.8396 25.6498 33.8053 19.1911C34.3328 18.0504 33.8338 16.6959 32.6789 16.1684C31.524 15.6409 30.1838 16.1399 29.6562 17.2948C27.1469 22.7555 22.7412 27.1612 17.2947 29.6563ZM56.8174 40.3069C56.2898 39.1662 54.9353 38.653 53.7947 39.1805C47.3502 42.1461 42.1461 47.336 39.1805 53.7948C38.6529 54.9354 39.152 56.2899 40.3068 56.8174C41.4617 57.345 42.802 56.8459 43.3295 55.691C45.8389 50.2303 50.2445 45.8246 55.691 43.3295C56.8316 42.802 57.3449 41.4475 56.8174 40.3069Z" fill="#291000"/>
</g>
<defs>
<clipPath id="clip0_1699_4077">
<rect width="73" height="73" fill="white"/>
</clipPath>
</defs>
</svg>
