<svg width="75" height="82" viewBox="0 0 75 82" fill="none" xmlns="http://www.w3.org/2000/svg">
<path d="M1.04242 33.9901L16.963 16.5696C17.8474 15.6018 18.8898 14.9105 20.0902 14.4958C21.2906 14.081 22.5225 14.0118 23.786 14.2884L28.7138 15.429C25.3023 19.8532 22.6173 23.8627 20.6588 27.4574C18.7003 31.0521 16.805 35.4072 14.9729 40.5227L1.04242 33.9901ZM20.4693 43.4262C21.9223 38.4489 23.8972 33.7481 26.394 29.3239C28.8907 24.8996 31.9068 20.7519 35.4421 16.8807C41.0017 10.7974 47.3509 6.25145 54.4899 3.24296C61.6289 0.234479 68.294 -0.680786 74.4854 0.497169C75.5594 7.27179 74.7381 14.5649 72.0215 22.3764C69.3049 30.188 65.1668 37.1354 59.6072 43.2188C56.1325 47.0209 52.3419 50.3224 48.2354 53.1235C44.1289 55.9246 39.8013 58.1188 35.2526 59.706L20.4693 43.4262ZM46.6244 30.983C48.0775 32.5729 49.8629 33.3679 51.9805 33.3679C54.0982 33.3679 55.8823 32.5729 57.3329 30.983C58.7859 29.393 59.5125 27.4408 59.5125 25.1264C59.5125 22.8119 58.7859 20.8584 57.3329 19.2656C55.8798 17.6757 54.0944 16.8807 51.9768 16.8807C49.8591 16.8807 48.075 17.6757 46.6244 19.2656C45.1714 20.8556 44.4448 22.8092 44.4448 25.1264C44.4448 27.4436 45.1714 29.3958 46.6244 30.983ZM43.971 80.8594L37.906 65.6165C42.5811 63.6118 46.5777 61.5379 49.8957 59.3949C53.2138 57.2519 56.8932 54.3139 60.9339 50.581L61.8816 55.973C62.1343 57.3556 62.0711 58.7216 61.6921 60.071C61.313 61.4204 60.6812 62.5776 59.7968 63.5426L43.971 80.8594ZM7.10738 56.6989C9.31857 54.2794 12.0036 53.0517 15.1624 53.0157C18.3212 52.9798 21.0063 54.1729 23.2174 56.5952C25.4286 59.0147 26.5342 61.9527 26.5342 65.4091C26.5342 68.8656 25.4286 71.8035 23.2174 74.223C21.638 75.9513 19.001 77.4375 15.3065 78.6819C11.6119 79.9262 6.50973 81.0322 0 82C0.884474 74.8798 1.8953 69.3149 3.03248 65.3054C4.16966 61.296 5.52796 58.4271 7.10738 56.6989Z" fill="#291000"/>
</svg>
