<svg width="38" height="38" viewBox="0 0 38 38" fill="none" xmlns="http://www.w3.org/2000/svg">
<path d="M31.667 6.33331H6.33366C4.59199 6.33331 3.18283 7.75831 3.18283 9.49998L3.16699 28.5C3.16699 30.2416 4.59199 31.6666 6.33366 31.6666H31.667C33.4087 31.6666 34.8337 30.2416 34.8337 28.5V9.49998C34.8337 7.75831 33.4087 6.33331 31.667 6.33331ZM31.0337 13.0625L19.8395 20.0608C19.3328 20.3775 18.6678 20.3775 18.1612 20.0608L6.96699 13.0625C6.80823 12.9734 6.6692 12.8529 6.55832 12.7085C6.44743 12.5641 6.36701 12.3987 6.3219 12.2223C6.2768 12.0459 6.26796 11.8622 6.29591 11.6823C6.32386 11.5024 6.38802 11.33 6.48452 11.1756C6.58102 11.0212 6.70784 10.888 6.85731 10.7841C7.00678 10.6801 7.17579 10.6075 7.35411 10.5708C7.53243 10.534 7.71636 10.5338 7.89475 10.5702C8.07315 10.6066 8.24231 10.6788 8.39199 10.7825L19.0003 17.4166L29.6087 10.7825C29.7583 10.6788 29.9275 10.6066 30.1059 10.5702C30.2843 10.5338 30.4682 10.534 30.6465 10.5708C30.8249 10.6075 30.9939 10.6801 31.1433 10.7841C31.2928 10.888 31.4196 11.0212 31.5161 11.1756C31.6126 11.33 31.6768 11.5024 31.7047 11.6823C31.7327 11.8622 31.7239 12.0459 31.6787 12.2223C31.6336 12.3987 31.5532 12.5641 31.4423 12.7085C31.3315 12.8529 31.1924 12.9734 31.0337 13.0625Z" fill="white"/>
</svg>
