<svg width="71" height="71" viewBox="0 0 71 71" fill="none" xmlns="http://www.w3.org/2000/svg">
<path d="M31.4088 12.8826C33.3918 18.8316 31.3672 24.8361 26.8881 26.306C22.409 27.7759 17.1672 24.1427 15.1842 18.1937C13.2012 12.2447 15.2258 6.24018 19.7049 4.77026C24.184 3.30034 29.4258 6.93354 31.4088 12.8826ZM13.9223 27.5402C16.5432 32.0332 15.9053 37.2611 12.5078 39.2025C9.11036 41.1439 4.22911 39.0777 1.62208 34.5847C-0.984951 30.0917 -0.374795 24.8638 3.02267 22.9224C6.42013 20.981 11.3014 23.0472 13.9084 27.5402H13.9223ZM9.59571 55.6351C16.8621 36.0408 29.7725 31.0624 35.4996 31.0624C41.2268 31.0624 54.1371 36.0408 61.4035 55.6351C61.9027 56.9802 62.1246 58.4224 62.1246 59.8646V60.0865C62.1246 63.6642 59.2264 66.5624 55.6486 66.5624C54.0539 66.5624 52.473 66.3683 50.9338 65.98L38.7307 62.9292C36.609 62.4023 34.3902 62.4023 32.2686 62.9292L20.0654 65.98C18.5262 66.3683 16.9453 66.5624 15.3506 66.5624C11.7729 66.5624 8.87462 63.6642 8.87462 60.0865V59.8646C8.87462 58.4224 9.09649 56.9802 9.59571 55.6351ZM58.4914 39.2025C55.0939 37.2611 54.4561 32.0332 57.077 27.5402C59.6979 23.0472 64.5652 20.981 67.9627 22.9224C71.3602 24.8638 71.998 30.0917 69.3772 34.5847C66.7562 39.0777 61.8889 41.1439 58.4914 39.2025ZM43.0018 26.306C38.5227 24.8361 36.4981 18.8316 38.4811 12.8826C40.4641 6.93354 45.7059 3.30034 50.185 4.77026C54.6641 6.24018 56.6887 12.2447 54.7057 18.1937C52.7227 24.1427 47.4809 27.7759 43.0018 26.306Z" fill="#291000"/>
</svg>
