<svg width="87" height="68" viewBox="0 0 87 68" fill="none" xmlns="http://www.w3.org/2000/svg">
<path d="M0 17C0 12.3117 4.3349 8.5 9.66667 8.5H48.3333C53.6651 8.5 58 12.3117 58 17V51C58 55.6883 53.6651 59.5 48.3333 59.5H9.66667C4.3349 59.5 0 55.6883 0 51V17ZM84.4474 13.2547C86.0182 13.9984 87 15.4328 87 17V51C87 52.5672 86.0182 54.0016 84.4474 54.7453C82.8766 55.4891 80.9734 55.4094 79.4781 54.5328L64.9781 46.0328L62.8333 44.7711V42.5V25.5V23.2289L64.9781 21.9672L79.4781 13.4672C80.9583 12.6039 82.8615 12.5109 84.4474 13.2547Z" fill="#291000"/>
</svg>
