<svg width="86" height="86" viewBox="0 0 86 86" fill="none" xmlns="http://www.w3.org/2000/svg">
<g clip-path="url(#clip0_1699_4093)">
<path d="M44.2752 5.07712C44.7526 4.98455 45.2455 4.98455 45.7229 5.07712L76.5265 11.249C78.2515 11.5885 79.499 13.116 79.499 14.875C79.499 16.634 78.2515 18.1615 76.5265 18.501L64.7133 20.8771V29.6875C64.7133 40.5963 55.8881 49.4375 44.999 49.4375C34.11 49.4375 25.2848 40.5963 25.2848 29.6875V20.8771L17.8919 19.3959V29.4406L20.31 41.5375C20.4486 42.2627 20.2638 43.0187 19.8017 43.5896C19.3397 44.1605 18.6312 44.5 17.8919 44.5H12.9633C12.224 44.5 11.531 44.176 11.0535 43.5896C10.5761 43.0033 10.3912 42.2627 10.5452 41.5375L12.9633 29.4406V18.3621C11.5002 17.8529 10.499 16.4642 10.499 14.875C10.499 13.116 11.7466 11.5885 13.4716 11.249L44.2752 5.07712ZM27.7336 55.5631C29.3508 55.0385 31.0912 55.6248 32.2618 56.8746L43.197 68.524C44.1673 69.5578 45.8153 69.5578 46.7857 68.524L57.7209 56.8746C58.8915 55.6248 60.6319 55.0385 62.249 55.5631C72.2602 58.7879 79.499 68.1691 79.499 79.2631C79.499 81.8861 77.3736 84 74.7707 84H15.2274C12.6245 84 10.499 81.8707 10.499 79.2631C10.499 68.1691 17.7379 58.7879 27.7336 55.5631Z" fill="#291000"/>
</g>
<defs>
<clipPath id="clip0_1699_4093">
<rect width="69" height="79" fill="white" transform="translate(10.5 5)"/>
</clipPath>
</defs>
</svg>
