<svg width="459" height="400" viewBox="0 0 459 400" fill="none" xmlns="http://www.w3.org/2000/svg">
<path d="M149.809 360.448C224.018 360.448 284.176 358.378 284.176 355.824C284.176 353.27 224.018 351.199 149.809 351.199C75.5998 351.199 15.4414 353.27 15.4414 355.824C15.4414 358.378 75.5998 360.448 149.809 360.448Z" fill="#291000"/>
<path d="M198.221 333.349L197.02 333.586" stroke="black" stroke-width="0.5" stroke-miterlimit="10"/>
<path d="M188.795 332.649C198.018 339.643 208.215 345.251 219.062 349.293C219.975 349.634 220.972 349.966 221.9 349.694C223.27 349.293 223.942 347.632 223.762 346.214C223.677 345.576 223.46 344.962 223.127 344.411C222.794 343.859 222.35 343.383 221.824 343.011C220.531 342.102 218.87 341.914 217.452 341.213C215.427 340.208 214.073 338.25 212.812 336.376L205.077 324.881L204.917 326.418" stroke="black" stroke-width="0.5" stroke-miterlimit="10"/>
<path d="M26.4238 267.78C43.7913 264.809 61.8914 264.645 78.9906 269.706M78.9906 269.706C74.1022 269.882 75.3593 268.505 78.9906 269.706ZM78.9906 269.706C76.8406 269.958 74.6787 270.106 72.5208 270.791C69.0367 271.938 65.7776 273.68 62.8882 275.94C60.138 278.274 57.5833 280.829 55.2494 283.58C55.0813 283.744 55.0813 284.076 54.9172 284.244C49.6004 290.723 46.4456 297.858 41.7975 305.005C40.136 307.495 37.4777 307.996 35.1516 309.489C34.7948 309.803 34.4056 310.079 33.9906 310.31C31.3322 312.472 30.1712 315.792 30.5035 319.119C30.8358 321.277 32.6614 323.439 34.9874 322.775C35.3609 322.578 35.7491 322.411 36.1485 322.274C36.8145 321.918 37.3845 321.405 37.8099 320.781C39.6356 317.978 40.9648 315.131 43.7913 313.141C45.6598 312.064 47.6009 311.118 49.6004 310.31C52.5911 309.317 55.4136 308.484 58.4083 307.656C61.0666 306.991 63.5568 306.659 66.2152 306.158C67.8727 305.994 69.37 305.826 70.8633 305.662C74.0181 305.493 76.8446 305.826 79.9995 306.158C83.8188 306.823 87.4701 307.82 90.9612 309.65C91.4576 309.982 92.6187 310.31 92.6187 311.143C92.6187 311.307 92.2864 311.475 91.9541 311.143M91.9541 311.143C92.1422 311.327 92.8349 310.09 91.9541 311.143ZM91.9541 311.143C92.951 310.146 94.6124 310.478 95.7775 310.975C102.419 314.134 108.897 317.453 115.539 320.941C116.868 321.606 118.362 322.27 119.691 322.943L121.184 323.443C121.352 323.608 121.685 323.776 121.849 323.94C127.165 326.43 132.478 328.593 137.959 330.583C143.108 332.412 148.256 334.238 153.737 335.387C153.901 335.387 154.233 335.72 154.402 335.72C165.363 338.214 175.993 339.54 186.951 338.523C187.451 338.523 188.116 338.194 188.612 338.194C190.867 338.028 193.106 337.7 195.314 337.213M195.314 337.213C194.916 337.229 194.521 337.297 194.141 337.417C194.537 337.383 194.93 337.315 195.314 337.213ZM195.314 337.213L192.724 337.381" stroke="black" stroke-width="0.5" stroke-miterlimit="10"/>
<path d="M27.7239 268.008C23.2759 268.348 21.3542 262.711 20.6016 259.263C20.8658 259.868 21.2181 261.401 21.7105 261.818C23.6202 262.507 25.622 262.106 27.6238 262.106C34.4299 260.905 40.8355 257.702 47.6416 256.901C71.663 254.098 93.2822 260.905 116.903 266.511C119.706 266.911 122.108 268.513 124.51 269.714C139.723 279.724 155.738 283.728 173.353 287.732C179.703 288.933 186.221 288.933 192.57 287.732C197.638 286.599 202.411 284.417 206.583 281.325C208.985 279.724 210.586 276.921 212.864 275.135" stroke="black" stroke-width="0.5" stroke-miterlimit="10"/>
<path d="M210.619 330.771C210.758 330.853 210.867 330.977 210.929 331.126C210.992 331.274 211.006 331.439 210.969 331.596C210.932 331.752 210.846 331.893 210.723 331.998C210.601 332.102 210.448 332.165 210.287 332.176C214.195 330.535 218.106 328.821 221.661 326.495C235.409 316.16 242.616 299.343 247.444 283.103" stroke="black" stroke-width="0.5" stroke-miterlimit="10"/>
<path d="M21.6672 251.451C16.0142 252.813 11.4742 258.046 10.9297 263.864" stroke="black" stroke-width="0.5" stroke-miterlimit="10"/>
<path d="M15.9574 248.364C13.5866 249.301 11.4893 250.819 9.85792 252.778C8.22658 254.737 7.11356 257.074 6.62109 259.576" stroke="black" stroke-width="0.5" stroke-miterlimit="10"/>
<path d="M227.234 321.642C227.423 321.946 227.883 321.854 228.219 321.726L231.522 320.452C231.798 321.129 231.182 321.798 230.786 322.414C230.445 322.946 230.252 323.559 230.228 324.19C230.204 324.821 230.35 325.447 230.649 326.003C230.948 326.559 231.391 327.025 231.931 327.352C232.471 327.679 233.089 327.856 233.72 327.864C235.822 327.892 237.463 326.134 238.805 324.516C239.926 323.167 241.083 321.746 241.427 320.024C241.927 317.505 240.498 314.915 238.492 313.317C237.868 312.777 237.12 312.397 236.314 312.212C235.911 312.126 235.492 312.141 235.096 312.256C234.7 312.372 234.339 312.584 234.044 312.873" stroke="black" stroke-width="0.5" stroke-miterlimit="10"/>
<path d="M215.881 244.268C210.075 240.064 203.754 245.53 197.432 244.617C195.322 244.164 193.216 242.795 191.111 241.886C188.58 240.521 185.209 240.973 182.679 239.151C180.149 236.877 178.463 234.142 176.357 231.864C175.513 230.955 173.827 230.955 172.562 231.864C171.301 233.233 170.456 235.508 170.877 237.329C172.554 240.973 172.554 244.617 172.554 248.248C176.77 259.632 189.837 262.823 199.954 258.723C200.898 258.185 201.885 257.729 202.905 257.357C205.856 255.536 208.802 254.154 212.065 254.322C213.175 252.151 214.113 249.895 214.868 247.576C215.236 246.462 215.508 245.393 215.881 244.268Z" fill="#DBB947"/>
<path d="M224.312 235.62C219.992 231.764 216.617 227.211 211.561 224.933C207.765 223.564 203.974 223.111 200.603 220.833C196.808 218.555 195.543 214.454 193.016 210.823C191.751 209.001 190.486 207.62 188.38 207.179C187.956 207.179 187.956 206.727 187.535 206.27C185.43 204.901 182.479 204.901 182.479 207.636C181.634 214.466 179.528 221.301 182.479 227.676C184.585 231.776 187.535 234.511 191.331 236.785C200.179 241.798 209.455 239.52 218.603 239.7" fill="#DBB947"/>
<path d="M218.615 239.704C219.212 239.247 219.816 238.799 220.441 238.39C221.766 237.522 223.207 236.789 224.292 235.588" fill="#DBB947"/>
<path d="M264.504 356.553L265.765 356.825" stroke="black" stroke-width="0.55" stroke-miterlimit="10"/>
<path d="M209.386 278.595C209.128 270.123 210.333 261.671 212.949 253.61" stroke="black" stroke-width="0.55" stroke-miterlimit="10"/>
<path d="M246.452 282.911C253.058 286.915 261.465 286.915 269.072 286.114C272.675 285.714 275.878 283.712 278.28 280.909C281.083 277.706 283.084 273.702 283.485 269.698C283.885 264.092 283.485 256.885 277.88 253.682C273.876 254.482 269.873 254.082 265.869 253.281C262.266 252.08 259.063 251.279 255.86 249.678C248.253 245.674 241.447 241.269 234.241 236.865C229.837 234.863 225.033 234.863 221.029 238.066C217.026 241.269 215.424 245.674 214.223 250.478C213.823 251.279 213.022 252.48 212.754 253.281M212.754 253.281C212.834 253.125 212.906 252.961 212.982 252.809C212.894 252.957 212.83 253.125 212.754 253.281ZM212.754 253.281L212.938 253.101" stroke="black" stroke-width="0.55" stroke-miterlimit="10"/>
<path d="M241.27 247.752C241.871 248.553 242.507 249.477 242.367 250.494C242.375 250.615 242.346 250.735 242.286 250.84C242.225 250.944 242.134 251.028 242.026 251.081C241.917 251.133 241.795 251.153 241.676 251.136C241.556 251.119 241.444 251.068 241.354 250.987C240.153 250.442 236.498 247.7 237.154 245.842C237.967 243.54 240.734 247.047 241.27 247.752Z" fill="black" stroke="black" stroke-width="0.55" stroke-miterlimit="10"/>
<path d="M236.302 253.954C235.852 253.848 235.433 253.64 235.077 253.345C233.996 252.545 232.799 251.459 232.471 250.03C232.17 248.709 232.615 247.628 233.92 247.94C235.718 248.36 239.357 254.466 236.302 253.954Z" fill="black" stroke="black" stroke-width="0.51" stroke-miterlimit="10"/>
<path d="M225.357 235.72C221.037 231.864 217.662 227.311 212.606 225.033C208.81 223.668 205.019 223.211 201.648 220.933C197.853 218.655 196.588 214.559 194.061 210.923C192.796 209.097 191.531 207.72 189.425 207.275C189.001 207.275 189.001 206.823 188.58 206.366C186.475 205.001 183.524 205.001 183.524 207.732C182.679 214.567 180.573 221.397 183.524 227.772C185.63 231.872 188.58 234.607 192.376 236.885C201.224 241.894 210.5 239.616 219.648 239.796" stroke="black" stroke-width="0.55" stroke-miterlimit="10"/>
<path d="M216.721 243.812C210.92 239.608 204.598 245.073 198.272 244.164C196.166 243.708 194.061 242.342 191.951 241.429C189.424 240.064 186.049 240.521 183.523 238.699C180.993 236.42 179.307 233.686 177.198 231.411C176.357 230.499 174.671 230.499 173.406 231.411C172.141 232.777 171.3 235.055 171.721 236.877C173.406 240.521 173.406 244.164 173.406 247.808C177.622 259.195 190.686 262.382 200.803 258.282C201.747 257.747 202.734 257.291 203.753 256.917C206.704 255.095 209.654 253.714 212.913 253.882" stroke="black" stroke-width="0.55" stroke-miterlimit="10"/>
<path d="M255.575 285.814C252.136 283.287 248.495 281.048 244.689 279.119C242.071 277.79 239.348 276.601 237.082 274.671C234.816 272.741 232.987 269.898 232.971 266.771C232.971 266.37 233.315 265.77 233.599 266.058" stroke="black" stroke-width="0.55" stroke-miterlimit="10"/>
<path d="M234.665 266.366C234.726 266.42 234.775 266.486 234.806 266.561C234.837 266.636 234.851 266.718 234.845 266.799C234.088 266.095 233.086 265.714 232.053 265.74C231.02 265.765 230.037 266.194 229.316 266.935C229.286 266.789 229.288 266.638 229.322 266.493C229.356 266.348 229.421 266.212 229.512 266.094" stroke="black" stroke-width="0.55" stroke-miterlimit="10"/>
<path d="M281.61 260.26C281.746 260.472 281.517 260.773 281.277 260.793C281.037 260.779 280.802 260.713 280.589 260.601C280.053 260.481 279.5 260.455 278.955 260.524C277.735 260.484 276.558 260.064 275.588 259.323C274.598 258.569 273.694 257.71 272.89 256.761C272.201 255.992 271.493 255.159 271.236 254.134L271.677 254.254" stroke="black" stroke-width="0.55" stroke-miterlimit="10"/>
<path d="M184.436 193.457C180.897 194.799 178.451 198.923 178.799 202.959C178.527 201.912 178.657 200.8 179.163 199.844" stroke="black" stroke-width="0.55" stroke-miterlimit="10"/>
<path d="M180.276 184.985C176.957 186.142 174.411 189.542 174.059 193.293" stroke="black" stroke-width="0.55" stroke-miterlimit="10"/>
<path d="M170.06 228.661C170.67 227.555 171.006 226.319 171.041 225.057C169.922 226.113 169.071 227.42 168.559 228.871C168.046 230.321 167.887 231.873 168.094 233.397C167.84 233.138 167.661 232.815 167.577 232.463C167.492 232.11 167.505 231.741 167.614 231.395" stroke="black" stroke-width="0.55" stroke-miterlimit="10"/>
<path d="M167.037 216.681C164.733 219.916 163.677 223.875 164.062 227.828L164.57 226.515" stroke="black" stroke-width="0.55" stroke-miterlimit="10"/>
<path d="M272.338 256.348C272.838 257.004 273.422 257.591 274.075 258.094C274.8 258.736 275.582 259.308 276.413 259.804C278.177 260.797 280.247 261.102 282.222 260.661C282.37 260.64 282.508 260.579 282.623 260.484C282.755 260.322 282.819 260.113 282.799 259.904C282.799 258.623 281.97 257.534 281.198 256.573C280.425 255.612 279.596 254.643 278.527 254.17C277.51 253.726 276.373 253.77 275.28 253.826C274.427 253.87 272.546 253.57 271.813 253.998C271.157 254.382 271.841 255.792 272.338 256.348Z" fill="black"/>
<path d="M225.16 351.996V323.6" stroke="black" stroke-miterlimit="10"/>
<path d="M225.678 235.719V62.9994" stroke="black" stroke-miterlimit="10"/>
<path d="M346.871 63H226" stroke="black" stroke-miterlimit="10"/>
<path d="M346.613 356.824V62.9995" stroke="black" stroke-miterlimit="10"/>
<path d="M408.843 320.016H368.199V333.349H408.843V320.016Z" fill="#291000" stroke="black" stroke-miterlimit="10"/>
<path d="M422.681 125.838H379.25V143.135H422.681V125.838Z" fill="#291000"/>
<path d="M436.708 107.972H398.898V124.46H436.708V107.972Z" fill="#291000"/>
</svg>
