<svg width="619" height="210" viewBox="0 0 619 210" fill="none" xmlns="http://www.w3.org/2000/svg">
<path d="M95.7496 170.802C95.3007 176.203 93.2854 182.555 90.2531 186.363C88.2976 188.739 85.6228 190.415 82.6313 191.141H83.1351C105.707 191.141 124.011 186.473 124.011 180.706C123.993 176.12 112.138 172.203 95.7496 170.802Z" fill="#1E1E1E" stroke="#1E1E1E" stroke-width="1.22" stroke-miterlimit="10"/>
<path d="M67.7174 103.544C88.2384 103.544 104.874 102.609 104.874 101.457C104.874 100.304 88.2384 99.3698 67.7174 99.3698C47.1965 99.3698 30.561 100.304 30.561 101.457C30.561 102.609 47.1965 103.544 67.7174 103.544Z" stroke="#1E1E1E" stroke-miterlimit="10"/>
<path d="M74.3853 90.6834C76.6465 89.9094 78.5764 88.3888 79.8569 86.3723C81.1375 84.3557 81.6923 81.9634 81.43 79.5896C81.3411 78.4491 80.9173 77.3601 80.2117 76.4592C78.9475 74.9946 76.758 74.5736 74.7701 74.6285C71.1974 74.7109 67.5055 76.3036 65.5268 79.2052C64.1252 81.2647 64.8764 81.6216 62.293 81.0999C59.9753 80.6331 58.0882 79.9832 55.6697 80.4958C52.4909 81.1731 49.6602 83.7361 49.4587 86.8207C49.3636 87.7774 49.6173 88.7363 50.1732 89.521C51.2175 90.8756 53.178 91.1869 54.9368 91.3516C52.6375 93.3287 50.1732 95.6628 50.164 98.6102C50.2495 100.339 50.9819 101.972 52.2161 103.187H66.1223C66.645 102.51 67.0243 101.735 67.2369 100.907C67.4496 100.079 67.4911 99.2166 67.359 98.3722C67.8457 99.9579 68.7545 101.382 69.9881 102.491C70.3425 102.806 70.7225 103.091 71.1241 103.342H79.3689C80.3026 102.795 81.097 102.039 81.6897 101.134C82.2825 100.229 82.6577 99.1992 82.7859 98.1251C83.0882 93.9969 78.7276 90.1068 74.3853 90.6834Z" fill="#B21020"/>
<path d="M91.7559 71.8001C90.7095 73.4398 90.0631 75.3022 89.8687 77.2371C89.5998 78.3139 89.6637 79.4468 90.0519 80.4866C90.4506 81.1958 91.0369 81.7816 91.7467 82.1799C93.0366 82.999 94.4816 83.5437 95.9916 83.7799C97.5016 84.0162 99.0441 83.9389 100.523 83.5529C100.199 84.8659 100.303 86.248 100.821 87.4976C101.338 88.7471 102.242 89.7987 103.4 90.4988C104.558 91.199 105.909 91.511 107.257 91.3894C108.605 91.2678 109.879 90.719 110.893 89.8229C113.156 87.8275 113.641 84.5689 114.09 81.585C116.683 83.6445 120.741 82.9946 123.178 80.7429C125.614 78.4911 126.64 75.077 126.842 71.7726C127.009 70.4896 126.769 69.1865 126.155 68.0472C124.781 65.9328 121.767 65.8687 119.257 66.0335C120.613 63.5529 119.522 60.2761 117.425 58.4179C115.327 56.5598 112.414 55.8367 109.601 55.5255C106.312 55.1685 102.602 55.4248 100.294 57.7955C99.3431 58.8585 98.6198 60.1044 98.1685 61.4568C97.4722 63.2875 97.5638 67.6902 96.5103 69.0449C95.4568 70.3996 93.0017 70.1159 91.7559 71.8001Z" fill="#B21020"/>
<path d="M65.4824 36.2486C65.2406 34.3633 65.563 32.4486 66.4092 30.7463C67.2554 29.0439 68.5873 27.6301 70.2369 26.6834C71.9145 25.787 73.7899 25.324 75.6924 25.3368C77.5948 25.3496 79.4638 25.8377 81.1292 26.7566C82.0471 23.0906 84.2592 19.8791 87.3586 17.7132C88.6702 16.7217 90.2361 16.1219 91.8749 15.9832C94.6231 15.8734 97.1149 17.6674 98.9104 19.7544C100.6 21.7476 101.875 24.0571 102.661 26.548C103.448 29.0389 103.73 31.6614 103.491 34.2624C107.21 32.0381 112.588 34.6926 113.778 38.839C114.969 42.9855 112.514 47.6628 108.74 49.823C104.966 51.9832 100.239 51.9008 96.1163 50.5461C97.124 53.6948 97.9485 57.3104 96.2538 60.1571C95.472 61.3733 94.4063 62.3816 93.1482 63.0953C90.4477 64.6489 87.3244 65.3085 84.2257 64.9796C81.127 64.6508 78.212 63.3503 75.8983 61.2646C71.6569 57.2646 71.7301 52.5965 72.0416 47.2967C72.3714 41.6399 66.4077 41.9145 65.4824 36.2486Z" fill="#B21020"/>
<path d="M12.0655 78.784C12.2487 83.4156 14.0901 88.1387 17.7361 90.9946C22.518 94.7383 29.6452 94.5186 34.8486 91.3882C40.0519 88.2577 43.4231 82.6742 45.008 76.8161C50.0098 77.7314 55.2223 76.1845 59.4821 73.4202C62.9015 71.3332 65.5725 68.219 67.1131 64.5232C67.8609 62.6758 68.1466 60.6742 67.9455 58.6916C67.7443 56.7091 67.0624 54.8054 65.9588 53.1456C63.6228 49.9328 59.0607 48.3218 55.4147 49.8962C56.3308 45.5026 57.1186 40.6696 54.9292 36.7703C54.1033 35.3721 53.0034 34.1548 51.6954 33.1914C49.5311 31.5424 46.9861 30.4646 44.2951 30.0575C41.6041 29.6503 38.8538 29.9269 36.298 30.8618C33.7422 31.7966 31.4632 33.3596 29.6712 35.4064C27.8793 37.4533 26.6322 39.9181 26.045 42.5735C21.3546 42.6468 16.9941 39.2509 12.3495 39.8916C10.7243 40.1929 9.19827 40.889 7.90585 41.9186C6.61343 42.9481 5.59433 44.2796 4.93836 45.7955C3.64204 48.845 3.20182 52.1898 3.665 55.4706C3.72552 56.8412 4.14228 58.1725 4.87424 59.3333C5.63438 60.2439 6.5687 60.9938 7.62249 61.5392C10.9204 63.5804 14.1908 64.2852 13.8427 68.1204C13.5129 71.736 12.0655 75.0129 12.0655 78.784Z" fill="#B21020"/>
<path d="M509.344 54.7657C508.428 56.3584 507.374 58.2348 507.594 60.2577C507.604 60.6629 507.757 61.0517 508.024 61.3561C508.373 61.649 508.831 61.4659 509.206 61.2463C511.102 60.157 516.92 54.6376 515.875 50.9122C514.574 46.3172 510.186 53.3378 509.344 54.7657Z" fill="#1E1E1E" stroke="#1E1E1E" stroke-width="0.43" stroke-miterlimit="10"/>
<path d="M517.221 67.2326C517.963 66.9952 518.631 66.5731 519.164 66.006C521.23 64.2934 522.681 61.9538 523.295 59.3424C523.771 56.6879 523.075 54.5369 520.996 55.1502C518.147 55.9831 512.366 68.2852 517.221 67.2326Z" fill="#1E1E1E" stroke="#1E1E1E" stroke-width="0.4" stroke-miterlimit="10"/>
<path d="M437.734 69.3378C436.525 70.7355 435.136 71.9667 433.603 72.9992C431.853 74.3423 429.989 75.5306 428.033 76.5506C423.742 78.641 418.888 79.2834 414.2 78.3813C413.87 78.3405 413.555 78.2177 413.284 78.0243C413.133 77.8636 413.017 77.673 412.945 77.4649C412.872 77.2568 412.844 77.0357 412.863 76.8161C412.863 74.1525 414.832 71.9008 416.701 69.9053C418.57 67.9099 420.484 65.9053 423.059 64.9168C425.477 64.0015 428.179 64.093 430.79 64.2028C432.815 64.2943 437.295 63.6719 439.035 64.5598C440.547 65.2646 438.962 68.1845 437.734 69.3378Z" fill="#1E1E1E"/>
<path d="M468.375 135.05C477.014 134.244 485.634 130.967 491.955 124.706C489.546 134.628 483.454 143.214 476.171 150.006C474.467 151.608 472.672 153.091 470.849 154.528H559.196C561.495 145.352 563.106 136.017 564.015 126.601C565.462 108.779 562.906 90.9031 560.039 73.2555C558.207 61.7955 556.054 50.006 549.916 40.3035C543.778 30.601 532.575 23.5987 521.829 26.2349C517.688 27.2509 513.96 29.585 510.305 31.8825L491.479 43.7818C483.353 48.8985 475.191 54.0427 466.369 57.6674C456.602 61.6984 446.146 63.7997 435.58 63.855C430.651 63.855 425.429 63.5072 421.078 65.9603C417.001 68.2486 414.354 72.7337 413.19 77.4385C412.027 82.1433 412.201 87.0861 412.595 91.9282C413.511 103.324 416.122 115.461 424.229 123.05C429.323 127.846 436.019 130.253 442.633 132.056C451.034 134.363 459.737 135.855 468.375 135.05Z" stroke="#1E1E1E" stroke-width="0.97" stroke-miterlimit="10"/>
<path d="M468.468 135.407C475.184 128.406 482.985 122.534 491.572 118.015C497.536 114.903 503.884 112.441 509.179 108.194C514.474 103.947 518.651 97.3196 517.992 90.3448" stroke="#1E1E1E" stroke-miterlimit="10"/>
<path d="M512.925 91.4064C514.687 90.7377 516.54 90.3366 518.421 90.2165C519.363 90.1694 520.303 90.3285 521.177 90.6827C522.05 91.0368 522.836 91.5775 523.478 92.2669" stroke="#1E1E1E" stroke-miterlimit="10"/>
<path d="M412.853 79.1501C417.473 79.3282 422.08 78.5748 426.402 76.935C427.062 76.6787 427.703 76.4133 428.335 76.1112C430.799 74.8927 432.994 73.1946 434.793 71.1166C436.591 69.0387 437.955 66.6227 438.806 64.0106" stroke="#1E1E1E" stroke-miterlimit="10"/>
<path d="M527.949 154.528H585.809C589.064 152.055 592.049 149.244 594.713 146.143C593.26 139.617 589.617 133.784 584.389 129.612C583.06 128.578 581.64 127.617 580.77 126.107C579.854 124.368 579.909 122.235 579.991 120.23C580.635 105.019 579.751 89.7822 577.353 74.7474C576.853 71.2799 576.125 67.8492 575.173 64.4774C573.259 57.9997 569.993 52.0007 565.591 46.8756C563.255 43.9692 560.284 41.6364 556.906 40.0564C555.189 39.3391 553.344 38.9779 551.483 38.9946C548.139 38.6376 544.695 38.6742 541.965 40.6147C540.256 41.9743 538.859 43.6849 537.87 45.6307C535.983 48.7254 534.572 52.0855 533.683 55.5987C530.843 68.0106 537.632 80.752 536.862 93.5026C536.312 102.455 532.098 110.628 529.442 119.132C527.342 125.868 526.195 132.865 526.034 139.919C525.871 144.151 526.303 148.384 527.316 152.496C527.509 153.173 527.72 153.85 527.949 154.528Z" fill="#DBB947"/>
<path d="M528.912 148.734C526.576 137.429 528.408 125.53 532.988 114.546C539.401 98.0701 538.485 81.5941 534.82 64.2028C532.988 55.0495 536.653 44.9809 543.981 38.5736C547.646 36.7429 552.226 35.8276 555.753 37.2555" stroke="#1E1E1E" stroke-miterlimit="10"/>
<path d="M548.333 38.2532C556.807 33.0816 565.052 40.4043 568.716 46.8116C585.206 69.6949 581.541 96.2395 582.458 121.869C582.458 123.699 583.374 125.53 585.206 127.361C591.618 131.937 597.115 137.429 596.199 145.667C595.292 147.217 593.848 148.38 592.141 148.935" stroke="#1E1E1E" stroke-miterlimit="10"/>
<path d="M350.523 30.7567C351.027 23.077 351.357 14.2807 345.805 8.9443C341.225 4.54156 334.226 4.12966 327.868 3.97405C264.915 2.4668 201.955 1.30739 138.989 0.495795C135.682 0.495795 131.954 0.578175 129.691 2.9855C127.428 5.39282 127.52 8.87107 127.667 12.0564C128.827 36.6422 130.354 61.2036 132.247 85.7406C133.255 98.7383 134.363 111.718 135.481 124.706C136.223 133.42 136.974 142.098 138.055 150.802C139.255 160.395 140.867 169.924 142.48 179.452C142.892 181.86 143.396 184.432 145.081 186.171C147.051 188.175 150.092 188.56 152.887 188.834L227.905 196.157L332.339 206.308C339.594 207.013 351.503 210.592 358.502 208.862C365.501 207.132 361.901 198.912 361.168 192.157" stroke="#1E1E1E" stroke-width="0.99" stroke-miterlimit="10"/>
<path d="M361.167 192.093L350.522 30.7291" stroke="#1E1E1E" stroke-miterlimit="10"/>
<path d="M361.505 194.372L461.587 169.448" stroke="#1E1E1E" stroke-miterlimit="10"/>
<path d="M360.81 207.754L460.7 181.741" stroke="#1E1E1E" stroke-miterlimit="10"/>
<path d="M461.589 169.448L359.024 159.562" stroke="#1E1E1E" stroke-miterlimit="10"/>
<path d="M460.7 181.741L461.588 169.448" stroke="#1E1E1E" stroke-miterlimit="10"/>
<path d="M361.02 189.878L417.405 175.59" stroke="#1E1E1E" stroke-miterlimit="10"/>
<path d="M359.92 173.1L417.405 175.589" stroke="#1E1E1E" stroke-miterlimit="10"/>
<path d="M618.998 155.303C533.057 155.689 445.139 154.52 358.578 154.379" stroke="#1E1E1E" stroke-miterlimit="10"/>
<path d="M30.561 101.457L41.1143 185.924" stroke="#1E1E1E" stroke-miterlimit="10"/>
<path d="M40.628 185.585C40.8204 188.541 44.6313 189.859 47.7277 190.354C57.0858 191.863 66.5562 192.567 76.0347 192.459C82.6855 192.395 88.9424 191.626 93.6419 187.242L104.855 101.457" fill="white"/>
<path d="M40.628 185.585C40.8204 188.541 44.6313 189.859 47.7277 190.354C57.0858 191.863 66.5562 192.567 76.0347 192.459C82.6855 192.395 88.9424 191.626 93.6419 187.242L104.855 101.457" stroke="#1E1E1E" stroke-width="1.01" stroke-miterlimit="10"/>
<path d="M138.264 152.285L98.9916 151.626" stroke="#1E1E1E" stroke-miterlimit="10"/>
<path d="M36.277 153.301H0" stroke="#1E1E1E" stroke-miterlimit="10"/>
<path d="M10.1775 78.784C10.3607 83.4156 12.2021 88.1387 15.8481 90.9946C20.6209 94.7383 27.7572 94.5186 32.9606 91.3882C38.164 88.2577 41.526 82.6742 43.1108 76.8161C48.1126 77.7314 53.3343 76.1845 57.5941 73.4202C61.0135 71.3332 63.6845 68.219 65.2251 64.5232C65.9716 62.6751 66.2558 60.6731 66.053 58.6905C65.8503 56.7079 65.1668 54.8047 64.0617 53.1456C61.7257 49.9328 57.1636 48.3218 53.5084 49.8962C54.4245 45.5026 55.2215 40.6696 53.0229 36.7703C52.2033 35.3702 51.106 34.1523 49.7982 33.1914C47.634 31.5424 45.089 30.4646 42.398 30.0575C39.707 29.6503 36.9567 29.9269 34.4008 30.8618C31.845 31.7966 29.566 33.3596 27.7741 35.4064C25.9822 37.4533 24.7351 39.9181 24.1478 42.5735C19.4666 42.6468 15.1061 39.2509 10.4615 39.8916C8.83634 40.1929 7.3103 40.889 6.01788 41.9186C4.72546 42.9481 3.70635 44.2796 3.05039 45.7955C1.77314 48.8503 1.35196 52.1948 1.83199 55.4706C1.89706 56.8404 2.31346 58.1705 3.04122 59.3333C3.80206 60.2432 4.73623 60.993 5.78948 61.5392C9.08739 63.5804 12.3487 64.2852 12.0097 68.1204C11.6249 71.736 10.1775 75.0129 10.1775 78.784Z" stroke="#1E1E1E" stroke-miterlimit="10"/>
<path d="M63.5953 35.7543C63.3486 33.8662 63.6699 31.9475 64.5182 30.2424C65.3666 28.5374 66.7035 27.1232 68.3589 26.1799C70.0336 25.2794 71.9081 24.8141 73.8098 24.8269C75.7116 24.8397 77.5796 25.3302 79.242 26.2531C80.1633 22.5861 82.3744 19.3728 85.4714 17.2005C86.7849 16.2125 88.3498 15.6131 89.9877 15.4705C92.736 15.3607 95.2369 17.1547 97.0233 19.2508C98.7143 21.243 99.9904 23.5524 100.777 26.0436C101.563 28.5348 101.845 31.1577 101.604 33.7588C105.332 31.5346 110.7 34.189 111.891 38.3355C113.082 42.482 110.627 47.1501 106.853 49.3195C103.079 51.4888 98.3516 51.3973 94.2292 50.0426C95.2369 53.1913 96.0614 56.8069 94.3666 59.6536C93.5924 60.8761 92.525 61.886 91.2611 62.5918C88.5674 64.1534 85.4478 64.8219 82.3502 64.5012C79.2525 64.1805 76.3363 62.8871 74.0203 60.8069C69.7697 56.816 69.843 52.1479 70.1545 46.8481C70.4659 41.1273 64.5205 41.3927 63.5953 35.7543Z" stroke="#1E1E1E" stroke-miterlimit="10"/>
<path d="M90.1606 70.1159C89.1359 71.7583 88.5086 73.6168 88.3285 75.5438C88.0523 76.6229 88.1163 77.7609 88.5117 78.8024C88.9136 79.5059 89.4953 80.0903 90.1973 80.4957C91.4881 81.3128 92.9334 81.8555 94.4433 82.0902C95.9531 82.3248 97.4952 82.2463 98.9734 81.8596C98.6505 83.1734 98.7559 84.556 99.2742 85.8058C99.7924 87.0557 100.697 88.1075 101.855 88.8083C103.013 89.509 104.365 89.8219 105.714 89.7015C107.062 89.581 108.337 89.0335 109.353 88.1387C111.606 86.1342 112.147 82.8756 112.541 79.9008C115.133 81.9694 119.191 81.3104 121.628 79.0678C124.065 76.8252 125.091 73.3927 125.293 70.0884C125.46 68.8053 125.219 67.5023 124.605 66.363C123.24 64.2577 120.227 64.1845 117.716 64.3493C119.063 61.8687 117.982 58.601 115.884 56.7337C113.786 54.8664 110.864 54.1525 108.052 53.8413C104.763 53.4843 101.053 53.7497 98.7443 56.1204C97.7941 57.1838 97.0709 58.4296 96.619 59.7818C95.932 61.6124 96.0144 66.0152 94.9609 67.3699C93.9074 68.7246 91.4065 68.4042 90.1606 70.1159Z" stroke="#1E1E1E" stroke-miterlimit="10"/>
<path d="M73.6619 90.2531C78.3431 88.752 81.2745 83.498 80.7066 78.6192C80.62 77.4335 80.1974 76.2969 79.4882 75.3424C78.224 73.7955 76.0345 73.3653 74.0466 73.411C72.2352 73.4182 70.4516 73.8571 68.844 74.6913C67.2363 75.5255 65.8511 76.7309 64.8033 78.2073C63.3925 80.3767 64.1529 80.752 61.5329 80.1936C59.2152 79.6993 57.328 79.022 54.9004 79.562C51.7308 80.276 48.9001 82.9579 48.6985 86.1982C48.6012 87.1924 48.8539 88.1894 49.4131 89.0174C50.4574 90.4453 52.4178 90.7657 54.1767 90.9762C51.8773 93.0449 49.4131 95.4888 49.4039 98.5826C49.4761 100.384 50.2061 102.097 51.4559 103.397H65.3988C66.4602 101.941 66.9045 100.126 66.6355 98.3446C67.1091 99.9965 68.017 101.492 69.2646 102.674C69.6155 103.012 69.9956 103.319 70.4006 103.59H78.6454C79.5954 102.994 80.3969 102.19 80.9891 101.238C81.5812 100.286 81.9483 99.2123 82.0624 98.0975C82.3647 93.7039 78.0041 89.6307 73.6619 90.2531Z" stroke="#1E1E1E" stroke-miterlimit="10"/>
<path d="M33.4195 70.8116C39.1265 70.8116 43.7529 66.5332 43.7529 61.2555C43.7529 55.9778 39.1265 51.6994 33.4195 51.6994C27.7125 51.6994 23.0861 55.9778 23.0861 61.2555C23.0861 66.5332 27.7125 70.8116 33.4195 70.8116Z" fill="#1E1E1E" stroke="#1E1E1E" stroke-miterlimit="10"/>
<path d="M86.9005 46.9763C90.4522 46.9763 93.3314 44.0995 93.3314 40.5507C93.3314 37.0019 90.4522 34.1251 86.9005 34.1251C83.3488 34.1251 80.4696 37.0019 80.4696 40.5507C80.4696 44.0995 83.3488 46.9763 86.9005 46.9763Z" fill="#1E1E1E" stroke="#1E1E1E" stroke-miterlimit="10"/>
<path d="M107.292 77.4019C110.692 77.4019 113.448 74.943 113.448 71.9099C113.448 68.8767 110.692 66.4179 107.292 66.4179C103.892 66.4179 101.136 68.8767 101.136 71.9099C101.136 74.943 103.892 77.4019 107.292 77.4019Z" fill="#1E1E1E" stroke="#1E1E1E" stroke-miterlimit="10"/>
<path d="M66.3434 95.9649C68.8629 95.9649 70.9055 93.924 70.9055 91.4065C70.9055 88.889 68.8629 86.8482 66.3434 86.8482C63.8238 86.8482 61.7813 88.889 61.7813 91.4065C61.7813 93.924 63.8238 95.9649 66.3434 95.9649Z" fill="#1E1E1E" stroke="#1E1E1E" stroke-miterlimit="10"/>
<path d="M97.8373 83.1136L91.0491 102.876" stroke="#1E1E1E" stroke-miterlimit="10"/>
<path d="M82.0625 64.6238C81.3205 77.4385 82.9786 90.1891 83.116 102.985" stroke="#1E1E1E" stroke-miterlimit="10"/>
<path d="M42.7173 78.1525L50.7422 94.6559" stroke="#1E1E1E" stroke-miterlimit="10"/>
<path d="M103.976 168.285C101.525 168.01 99.0551 167.936 96.592 168.066L94.4942 186.729C96.8684 187.405 99.2954 187.88 101.75 188.148C113.512 189.475 123.552 186.098 124.166 180.615C124.78 175.132 115.747 169.603 103.976 168.285Z" fill="#1E1E1E" stroke="#1E1E1E" stroke-miterlimit="10"/>
<path d="M223.54 77.5055C226.396 77.094 229.422 80.2165 230.293 84.5251C231.164 88.8095 229.591 92.634 226.735 93.0697C223.903 93.5054 220.853 90.3829 219.957 86.0743C219.061 81.7899 220.683 77.9654 223.54 77.5055ZM240.847 77.5055C243.727 77.9654 245.325 81.7899 244.477 86.0743C243.558 90.3829 240.532 93.5054 237.676 93.0697C234.795 92.634 233.222 88.8095 234.117 84.5251C234.989 80.2165 238.015 77.094 240.847 77.5055ZM210.589 88.6401C213.349 87.454 217.101 89.6083 219.061 93.3602C220.901 97.1847 220.272 101.203 217.537 102.389C214.801 103.575 211.074 101.445 209.161 97.6446C207.249 93.8443 207.927 89.802 210.589 88.6401ZM254.16 88.6401C256.822 89.802 257.5 93.8443 255.588 97.6446C253.676 101.445 249.948 103.575 247.213 102.389C244.477 101.203 243.848 97.1847 245.688 93.3602C247.648 89.6083 251.4 87.454 254.16 88.6401ZM250.117 114.734C250.214 117.009 248.471 119.527 246.39 120.471C242.057 122.455 236.925 118.34 232.108 118.34C227.291 118.34 222.111 122.625 217.851 120.471C215.431 119.284 213.76 116.138 214.075 113.524C214.511 109.917 218.844 107.98 221.409 105.342C224.822 101.929 227.243 95.5145 232.108 95.5145C236.949 95.5145 239.515 101.832 242.783 105.342C245.47 108.295 249.948 110.788 250.117 114.734Z" fill="#291000"/>
<path d="M233.447 95.6327C235.747 95.6328 237.534 97.1306 239.181 99.1383C240.001 100.139 240.773 101.249 241.552 102.339C242.326 103.423 243.108 104.487 243.936 105.377V105.378C244.618 106.127 245.411 106.845 246.21 107.555C247.014 108.269 247.824 108.974 248.555 109.71C249.929 111.092 250.985 112.543 251.178 114.264L251.205 114.612C251.25 115.685 250.862 116.831 250.2 117.831C249.538 118.829 248.616 119.66 247.625 120.11L247.624 120.111C245.554 121.059 243.273 120.56 240.845 119.779C239.648 119.394 238.399 118.935 237.17 118.58C235.935 118.222 234.685 117.958 233.447 117.958C232.207 117.958 230.953 118.233 229.714 118.604C228.483 118.973 227.228 119.448 226.03 119.844C223.599 120.646 221.331 121.141 219.302 120.115L219.3 120.114L219.085 120.002C218.023 119.417 217.115 118.43 216.496 117.281C215.834 116.055 215.512 114.667 215.662 113.421C215.868 111.715 216.997 110.382 218.446 109.126C219.169 108.499 219.956 107.903 220.735 107.29C221.509 106.681 222.271 106.057 222.924 105.386L222.925 105.387C223.793 104.518 224.595 103.463 225.378 102.381C226.165 101.293 226.933 100.182 227.747 99.1735C229.38 97.1521 231.136 95.6327 233.447 95.6327ZM212.026 88.7378C213.313 88.1849 214.856 88.4004 216.34 89.2347C217.821 90.0678 219.217 91.5059 220.177 93.3429C221.076 95.2144 221.365 97.1203 221.106 98.6903C220.846 100.261 220.044 101.476 218.775 102.027C217.501 102.579 215.969 102.37 214.502 101.537C213.036 100.704 211.66 99.2598 210.724 97.3992C209.788 95.5394 209.492 93.6323 209.745 92.0605C209.999 90.4892 210.794 89.2749 212.025 88.7368L212.026 88.7378ZM251.086 89.2347C252.569 88.4004 254.113 88.1849 255.399 88.7378V88.7368C256.631 89.2748 257.426 90.4889 257.68 92.0605C257.934 93.6322 257.638 95.5395 256.702 97.3992C255.766 99.2598 254.389 100.704 252.923 101.537C251.456 102.37 249.924 102.579 248.65 102.027C247.38 101.476 246.579 100.261 246.32 98.6903C246.061 97.1206 246.349 95.215 247.247 93.3438C248.207 91.5065 249.604 90.0679 251.086 89.2347ZM224.913 77.6212C226.235 77.4308 227.63 78.0546 228.818 79.287C230.004 80.5166 230.958 82.3298 231.386 84.4428C231.813 86.5446 231.638 88.5199 231.019 90.0123C230.4 91.5051 229.35 92.4888 228.035 92.6895C226.726 92.8907 225.332 92.2741 224.138 91.0442C222.946 89.8173 221.98 88.0034 221.541 85.8904H221.54C221.101 83.7899 221.283 81.8151 221.911 80.3199C222.538 78.8259 223.597 77.8341 224.912 77.6202L224.913 77.6212ZM238.265 79.286C239.451 78.0534 240.84 77.4303 242.148 77.6202C243.477 77.8336 244.537 78.826 245.168 80.3209C245.798 81.8156 245.985 83.7893 245.571 85.8894C245.119 88.0034 244.153 89.8172 242.961 91.0442C241.841 92.197 240.546 92.8116 239.3 92.7178L239.051 92.6895C237.723 92.4885 236.668 91.5042 236.05 90.0123C235.431 88.5204 235.261 86.5454 235.7 84.4437L235.701 84.4428C236.129 82.3298 237.082 80.5158 238.265 79.286Z" stroke="#1E1E1E" stroke-width="0.5"/>
</svg>
