<svg width="510" height="361" viewBox="0 0 510 361" fill="none" xmlns="http://www.w3.org/2000/svg">
<path d="M246.523 312.582C358.809 312.582 449.835 309.446 449.835 305.578C449.835 301.709 358.809 298.573 246.523 298.573C134.237 298.573 43.2109 301.709 43.2109 305.578C43.2109 309.446 134.237 312.582 246.523 312.582Z" fill="#291000"/>
<path d="M205.117 111.821C206.183 110.929 207.459 110.325 208.825 110.068C209 110.052 209.17 109.996 209.321 109.905C209.396 109.857 209.451 109.785 209.476 109.7C209.502 109.615 209.496 109.525 209.461 109.444C209.376 109.292 209.176 109.268 209.006 109.238C208.061 109.08 206.226 106.612 205.977 106.751C205.469 107 205.275 111.227 205.117 111.821Z" fill="#B21020"/>
<path d="M215.051 74.5918C218.686 77.624 219.292 83.0819 218.686 87.327C216.868 94.6042 214.445 103.701 206.57 106.733C205.964 106.733 204.753 106.127 204.147 106.127C198.695 105.52 193.243 108.552 187.791 106.127C181.733 103.094 177.493 96.4235 178.099 89.7527C178.704 86.1141 180.522 82.4755 183.551 80.6562C186.579 79.4433 190.214 78.8369 192.764 81.0564C194.951 81.4749 197.084 80.9897 199.192 80.2741C201.297 79.4899 203.356 78.5868 205.359 77.5694C208.057 76.2965 210.828 75.1848 213.658 74.2401C213.927 74.1307 214.216 74.0771 214.506 74.0824C214.637 74.104 214.759 74.1638 214.856 74.2545C214.953 74.3451 215.021 74.4625 215.051 74.5918Z" fill="#B21020"/>
<path d="M194.746 98.1033C195.406 98.2549 196.018 97.7516 196.563 97.3938C197.608 96.7496 198.845 96.4921 200.059 96.6661C201.349 96.8541 202.615 97.5272 203.887 97.2361C203.754 96.1784 203.379 95.1656 202.791 94.2767C202.203 93.449 201.525 92.6902 200.768 92.0147C198.95 90.2742 198.344 89.5283 197.29 92.1724C197.109 92.706 195.061 98.17 194.746 98.1033Z" fill="#B21020"/>
<path d="M220.535 59.8008C219.063 57.181 215.919 55.8529 212.914 55.7983C210.364 55.7559 206.826 58.0179 204.591 57.6176C202.876 57.2962 202.131 55.1312 200.496 54.4035C196.449 52.5842 191.754 51.7837 188.186 55.1979C185.2 58.0603 184.491 62.6935 185.363 66.7202C186.235 70.747 188.434 74.3796 190.603 77.903L198.478 90.7352C198.339 87.4058 201.198 84.8163 203.809 82.7484L213.277 75.2468C215.701 73.3122 218.202 71.3292 219.82 68.673C221.437 66.0168 222.055 62.5176 220.535 59.8008Z" fill="#B21020"/>
<path d="M166.868 96.7631C166.135 98.7159 163.84 103.865 166.263 105.253C168.686 106.642 171.551 104.41 173.253 102.906C174.725 101.609 177.391 99.1343 174.986 97.3635C172.847 95.7928 169.837 97.5636 167.614 96.1506C167.922 96.3508 168.219 96.5569 168.492 96.7571C168.188 96.5722 167.894 96.3697 167.614 96.1506" fill="#B21020"/>
<path d="M143.309 64.8888C140.83 65.7025 138.586 67.1097 136.773 68.9883C134.823 70.7304 133.314 72.9105 132.369 75.3498C130.588 80.4863 132.841 86.4173 136.851 90.0802C140.862 93.7431 146.32 95.4532 151.705 96.1446C157.091 96.8359 162.555 96.5994 167.976 96.939C169.158 91.6691 172.877 87.3997 175.488 82.6695C178.361 77.4485 179.909 71.6009 179.995 65.6408C180.05 61.7171 179.02 57.1506 175.47 55.4951C174.248 54.9813 172.929 54.7432 171.605 54.7977C165.753 54.8341 161.198 57.9936 157.49 62.2144C155.528 64.4461 155.491 66.2897 152.384 66.7627C149.537 67.1932 147.01 63.8518 143.309 64.8888Z" fill="#B21020"/>
<path d="M248.521 119.025C247.178 120.111 245.719 121.045 244.171 121.809C242.96 122.415 241.633 122.943 240.749 123.986C240.567 124.167 240.431 124.388 240.351 124.631C240.271 124.875 240.25 125.134 240.288 125.387C240.47 126.024 241.197 126.297 241.833 126.466C242.814 126.727 243.808 126.952 244.795 127.182L253.955 129.268C254.276 128.413 253.955 127.449 253.603 126.618C252.65 124.277 251.596 121.985 250.441 119.741C249.748 119.681 249.084 119.434 248.521 119.025Z" fill="#B21020"/>
<path d="M245.377 74.8161C241.433 73.6032 236.762 73.9853 233.721 76.781C230.553 79.6858 229.85 84.5494 230.856 88.7278C231.862 92.9061 234.309 96.5751 236.702 100.141L245.34 112.997C247.23 115.811 249.211 119.062 248.442 122.373C251.047 118.564 255.451 116.497 259.479 114.247C265.737 110.748 271.71 106.211 275.132 99.9044C278.555 93.5975 278.882 85.2226 274.442 79.5827C272.794 77.4844 270.365 75.7864 267.7 75.8289C265.579 75.8652 263.641 76.9811 261.817 78.0605C253.851 82.7665 253.215 77.1994 245.377 74.8161Z" fill="#B21020"/>
<path d="M401.238 53.7606C400.562 51.2688 399.292 48.9786 397.536 47.0875C395.78 45.1965 393.591 43.7612 391.158 42.9054C387.305 41.5955 381.962 42.6325 380.956 46.544C380.35 48.7879 381.489 51.1712 383.101 52.8267C384.712 54.4823 386.784 55.5921 388.704 56.8777C392.326 59.3095 395.465 62.3941 397.96 65.9743C401.681 64.4735 405.062 62.2393 407.903 59.4047C410.744 56.57 412.987 53.1926 414.498 49.4731C415.261 47.5689 415.746 45.1735 414.377 43.6392C412.414 41.4257 408.743 43.0328 406.593 45.0643C403.373 48.1032 400.887 51.8362 399.323 55.9802L398.5 53.2634" fill="#B21020"/>
<path d="M369.525 88.7097C368.001 87.4291 366.662 85.9433 365.545 84.2948C362.516 80.6562 355.853 79.4433 353.43 83.0819C346.766 92.1785 360.093 96.4235 366.151 100.669C366.835 101.016 367.608 101.144 368.367 101.035C369.126 100.927 369.832 100.587 370.392 100.062C374.026 93.9978 381.296 89.7527 380.084 82.4755C379.478 80.6562 376.449 80.0497 374.632 81.2626C371.603 82.4755 370.392 85.5077 369.671 88.6187" fill="#B21020"/>
<path d="M389.656 122.033C397.998 116.436 407.085 123.713 416.171 122.5C419.2 121.894 422.229 120.075 425.258 118.862C428.893 117.042 433.739 117.649 437.374 115.223C441.008 112.191 443.431 108.552 446.46 105.52C447.672 104.307 450.095 104.307 451.912 105.52C453.73 107.339 454.941 110.372 454.335 112.797C451.912 117.649 451.912 122.5 451.912 127.352C445.854 142.513 427.075 146.758 412.537 141.3C411.173 140.584 409.755 139.975 408.296 139.481C404.056 137.055 399.815 135.236 395.133 135.442C393.547 132.565 392.204 129.56 391.116 126.46C390.583 124.956 390.189 123.531 389.656 122.033Z" fill="#DBB947"/>
<path d="M377.533 110.517C383.749 105.387 388.595 99.3223 395.864 96.2902C401.316 94.4708 406.768 93.8644 411.614 90.8322C417.066 87.8 418.884 82.3421 422.518 77.4906C424.336 75.0648 426.153 73.2455 429.182 72.6391C429.788 72.6391 429.788 72.0327 430.394 71.4262C433.422 69.6069 437.663 69.6069 437.663 73.2455C438.874 82.3421 441.903 91.4387 437.663 99.9288C434.634 105.387 430.394 109.025 424.942 112.058C412.22 118.728 398.893 115.696 385.742 115.939" fill="#DBB947"/>
<path d="M385.724 115.957C384.864 115.35 383.998 114.744 383.101 114.21C381.199 113.052 379.127 112.094 377.57 110.499" fill="#DBB947"/>
<path d="M319.772 271.532L317.955 271.896" stroke="#1E1E1E" stroke-width="0.5" stroke-miterlimit="10"/>
<path d="M305.508 270.471C319.465 281.066 334.896 289.559 351.311 295.681C352.692 296.196 354.2 296.699 355.606 296.287C357.678 295.681 358.695 293.17 358.423 291.023C358.293 290.056 357.965 289.127 357.461 288.292C356.956 287.457 356.286 286.736 355.491 286.172C353.534 284.801 351.02 284.516 348.876 283.449C345.81 281.927 343.763 278.967 341.855 276.123L330.151 258.7L329.909 261.029" stroke="#1E1E1E" stroke-width="0.5" stroke-miterlimit="10"/>
<path d="M59.8262 172.228C86.0988 167.735 113.492 167.48 139.365 175.145M139.365 175.145C131.968 175.418 133.871 173.326 139.365 175.145ZM139.365 175.145C136.106 175.533 132.841 175.782 129.576 176.789C124.305 178.529 119.374 181.167 115.001 184.587C110.841 188.124 106.975 191.994 103.442 196.158C103.188 196.413 103.188 196.916 102.94 197.165C94.8948 206.977 90.1212 217.784 83.0881 228.615C80.5741 232.387 76.5518 233.139 73.0322 235.407C72.4902 235.883 71.9016 236.304 71.2754 236.662C67.253 239.931 65.4963 244.964 65.9991 250.004C66.5019 253.272 69.2642 256.541 72.7838 255.535C73.3492 255.239 73.9365 254.988 74.5406 254.783C75.5487 254.24 76.4111 253.462 77.0545 252.514C79.8169 248.239 81.8281 243.964 86.0988 240.944C88.9291 239.318 91.868 237.889 94.8948 236.668C99.4199 235.158 103.691 233.903 108.222 232.641C112.244 231.635 116.012 231.131 120.035 230.379C122.543 230.125 124.808 229.876 127.068 229.628C131.841 229.373 136.112 229.876 140.892 230.379C146.671 231.386 152.195 232.896 157.472 235.662C158.229 236.165 159.986 236.668 159.986 237.924C159.986 238.178 159.483 238.427 158.98 237.924M158.98 237.924C159.265 238.209 160.307 236.329 158.98 237.924ZM158.98 237.924C160.489 236.42 163.003 236.923 164.759 237.675C174.815 242.454 184.617 247.487 194.667 252.769C196.678 253.776 198.937 254.783 200.949 255.801L203.208 256.553C203.463 256.808 203.965 257.057 204.214 257.311C212.259 261.083 220.297 264.352 228.59 267.372C236.381 270.138 244.171 272.903 252.464 274.649C252.713 274.649 253.215 275.153 253.47 275.153C270.056 278.925 286.133 280.938 302.72 279.428C303.477 279.428 304.482 278.925 305.234 278.925C308.645 278.678 312.034 278.184 315.374 277.445M315.374 277.445C314.771 277.466 314.174 277.57 313.599 277.754C314.198 277.7 314.792 277.596 315.374 277.445ZM315.374 277.445L311.455 277.7" stroke="#1E1E1E" stroke-width="0.5" stroke-miterlimit="10"/>
<path d="M61.7905 172.568C55.5752 173.047 52.3464 165.43 51.0137 159.329L52.7038 163.198C60.6698 165.266 68.8418 161.634 76.6987 159.178C104.516 150.493 134.533 156.515 163.028 162.592L187.187 167.741C191.149 168.583 195.129 169.433 198.909 170.888C203.84 172.78 208.317 175.661 212.902 178.274C230.022 188.02 248.946 194.169 268.028 199.051C281.089 202.392 294.683 205.188 307.967 203.047C316.37 201.628 324.339 198.308 331.268 193.34C338.196 188.373 343.901 181.888 347.949 174.381" stroke="#1E1E1E" stroke-width="0.5" stroke-miterlimit="10"/>
<path d="M338.534 267.627C338.752 267.746 338.925 267.933 339.026 268.16C339.127 268.387 339.151 268.641 339.093 268.883C339.036 269.125 338.901 269.341 338.71 269.499C338.518 269.656 338.279 269.747 338.031 269.755C346.73 266.117 355.696 262.072 362.517 255.353C369.671 248.3 375.238 239.518 379.872 230.677C389.856 211.762 396.974 191.61 398.421 170.142C399.255 158.066 397.698 145.944 393.842 134.471" stroke="#1E1E1E" stroke-width="0.5" stroke-miterlimit="10"/>
<path d="M229.166 266.917C228.379 266.226 227.773 266.226 227.773 265.62C224.744 254.097 221.715 243.181 219.898 231.659C219.292 224.988 216.869 218.924 218.081 212.253C220.504 200.124 221.715 188.602 221.11 177.08C220.504 174.048 219.898 171.015 218.081 168.59C212.023 161.312 204.754 154.035 207.782 144.332C210.206 138.874 213.84 134.629 216.263 129.171C218.081 124.926 217.475 119.468 215.73 115.126C215.41 114.455 214.856 113.922 214.173 113.628C213.512 113.337 212.822 113.117 212.114 112.973L209.788 112.421C209.258 112.313 208.742 112.147 208.249 111.924C207.752 111.697 207.35 111.305 207.11 110.814" stroke="#1E1E1E" stroke-width="0.5" stroke-miterlimit="10"/>
<path d="M220.352 264.667C214.446 245.607 207.176 227.414 205.965 207.402C205.359 197.092 207.176 186.783 206.571 176.473C205.965 169.196 202.33 163.132 197.484 157.067C194.455 152.216 194.455 147.364 195.061 141.906C198.09 126.745 199.907 112.191 198.611 96.9814" stroke="#1E1E1E" stroke-width="0.5" stroke-miterlimit="10"/>
<path d="M233.298 264.091V268.082C230.311 259.234 228.853 249.942 228.985 240.604C229.154 231.083 231.275 221.714 231.408 212.18C231.541 202.647 229.833 193.175 230.36 183.641C230.948 174.417 232.717 165.307 235.624 156.534C237.319 151.51 239.328 146.598 241.64 141.828C243.784 137.249 246.377 132.816 247.855 127.952" stroke="#1E1E1E" stroke-width="0.5" stroke-miterlimit="10"/>
<path d="M193.703 251.672C194.444 252.286 195.327 252.704 196.272 252.884C196.878 252.884 197.483 251.065 197.483 250.459C197.483 233.478 199.301 216.498 198.089 199.518C197.483 195.273 196.878 191.028 195.06 186.783C192.637 182.538 190.82 178.899 188.397 174.654C186.579 171.015 186.579 167.377 187.185 163.132C188.397 155.248 189.002 147.364 186.579 139.481C182.945 129.778 175.07 123.713 169.012 116.436C169.012 112.797 169.012 108.552 170.145 105.083" stroke="#1E1E1E" stroke-width="0.5" stroke-miterlimit="10"/>
<path d="M273.812 79.2067C272.158 77.1085 269.729 75.4105 267.064 75.459C264.943 75.4954 263.011 76.6051 261.182 77.6846C253.215 82.3966 252.561 76.8235 244.735 74.4402C240.797 73.2273 236.12 73.6154 233.079 76.405C229.917 79.3098 229.208 84.1795 230.22 88.3579C231.232 92.5362 233.667 96.1991 236.066 99.765L244.735 112.628C246.122 114.695 247.545 117.006 247.903 119.401C248.475 119.423 249.027 119.62 249.484 119.965L249.538 120.002C252.137 117.406 255.596 115.69 258.867 113.877C265.131 110.378 271.104 105.841 274.521 99.5285C277.937 93.2154 278.258 84.8466 273.812 79.2067Z" stroke="#1E1E1E" stroke-width="0.5" stroke-miterlimit="10"/>
<path d="M142.425 64.8887C139.943 65.7009 137.697 67.1083 135.882 68.9883C133.924 70.7328 132.406 72.917 131.454 75.3619C129.679 80.4984 131.927 86.4294 135.943 90.0923C139.959 93.7552 145.405 95.4653 150.797 96.1566C156.188 96.848 161.64 96.6115 167.062 96.9511C168.243 91.6811 171.963 87.4118 174.573 82.6816C177.446 77.4606 178.994 71.613 179.08 65.6529C179.135 61.7292 178.105 57.1627 174.555 55.5072C173.334 54.9934 172.014 54.7552 170.69 54.8098C164.845 54.8461 160.289 58.0057 156.576 62.2265C154.613 64.4582 154.577 66.3017 151.469 66.7748C148.652 67.1932 146.12 63.8517 142.425 64.8887Z" stroke="#1E1E1E" stroke-width="0.5" stroke-miterlimit="10"/>
<path d="M219.897 59.8008C218.431 57.181 215.281 55.8529 212.277 55.7983C209.726 55.7559 206.189 58.0179 203.953 57.6176C202.239 57.2962 201.5 55.1312 199.858 54.4035C195.818 52.5842 191.123 51.7837 187.549 55.1979C184.562 58.0603 183.86 62.6935 184.726 66.7202C185.592 70.747 187.803 74.3796 189.966 77.903C192.603 82.1763 195.228 86.4537 197.841 90.7352C197.702 87.4058 200.567 84.8163 203.172 82.7484L212.646 75.2468C215.069 73.3122 217.565 71.3292 219.183 68.673C220.8 66.0168 221.418 62.5176 219.897 59.8008Z" stroke="#1E1E1E" stroke-width="0.5" stroke-miterlimit="10"/>
<path d="M166.657 96.7631C165.918 98.7159 163.628 103.865 166.051 105.253C168.474 106.642 171.346 104.41 173.048 102.906C174.52 101.609 177.185 99.1343 174.774 97.3635C172.642 95.7928 169.631 97.5636 167.408 96.1506M167.408 96.1506C167.711 96.3508 168.014 96.5569 168.28 96.7571C167.979 96.5707 167.688 96.3683 167.408 96.1506Z" stroke="#1E1E1E" stroke-width="0.5" stroke-miterlimit="10"/>
<path d="M214.252 74.4584C214.839 74.7992 215.461 75.0777 216.106 75.2892C215.576 74.91 215.015 74.5773 214.428 74.2947" stroke="#1E1E1E" stroke-width="0.5" stroke-miterlimit="10"/>
<path d="M192.159 81.0564C189.609 78.8369 185.974 79.4433 182.945 80.6562C179.916 82.4755 178.099 86.1141 177.493 89.7527C176.887 96.4235 181.128 103.094 187.186 106.127C192.638 108.552 198.09 105.52 203.542 106.127C204.147 106.127 205.359 106.733 205.965 106.733C213.84 103.701 216.263 94.6042 218.08 87.327C218.686 83.0819 218.08 77.624 214.446 74.5918" stroke="#1E1E1E" stroke-width="0.5" stroke-miterlimit="10"/>
<path d="M52.6298 147.461C44.0459 149.56 37.2067 157.48 36.3828 166.261" stroke="#1E1E1E" stroke-width="0.5" stroke-miterlimit="10"/>
<path d="M43.992 142.822C40.4093 144.238 37.2387 146.531 34.7706 149.491C32.3026 152.451 30.6159 155.984 29.8652 159.766" stroke="#1E1E1E" stroke-width="0.5" stroke-miterlimit="10"/>
<path d="M347.887 174.405L347.281 172.325C341.986 176.57 335.105 177.838 328.502 178.183C319.245 178.293 309.553 178.899 302.283 172.835C301.678 171.622 300.466 171.015 299.254 169.802C293.802 163.738 291.379 155.248 292.591 146.758C293.802 141.906 295.62 135.842 301.072 134.629C324.697 137.661 344.082 121.894 364.073 112.191C367.342 110.712 370.969 110.212 374.516 110.75C378.063 111.288 381.379 112.841 384.064 115.223C388.304 119.468 390.121 124.32 391.939 129.778C392.402 131.338 393.152 132.798 394.15 134.083M394.15 134.083C394.059 134.004 393.447 132.695 394.15 134.083ZM394.15 134.083L393.883 133.847" stroke="#1E1E1E" stroke-width="0.5" stroke-miterlimit="10"/>
<path d="M353.169 126.673C352.309 127.728 351.388 128.971 351.588 130.311C351.599 130.454 351.639 130.592 351.707 130.717C351.775 130.843 351.869 130.952 351.982 131.039C352.153 131.109 352.339 131.139 352.523 131.127C352.708 131.114 352.888 131.059 353.048 130.966C354.762 130.245 360.027 126.588 359.106 124.119C357.906 121.063 353.933 125.727 353.169 126.673Z" fill="#1E1E1E" stroke="#1E1E1E" stroke-width="0.5" stroke-miterlimit="10"/>
<path d="M359.863 135.235C360.552 135.084 361.201 134.786 361.765 134.362C363.437 133.234 365.297 131.651 365.8 129.596C366.266 127.697 365.582 126.163 363.553 126.6C360.772 127.212 355.126 135.981 359.863 135.235Z" fill="#1E1E1E" stroke="#1E1E1E" stroke-width="0.5" stroke-miterlimit="10"/>
<path d="M376.031 110.651C382.247 105.52 387.093 99.4558 394.362 96.4236C399.814 94.6043 405.266 93.9978 410.112 90.9656C415.564 87.9335 417.382 82.4755 421.016 77.624C422.834 75.1983 424.651 73.379 427.68 72.7725C428.286 72.7725 428.286 72.1661 428.892 71.5596C431.921 69.7403 436.161 69.7403 436.161 73.379C437.373 82.4755 440.401 91.5721 436.161 100.062C433.132 105.52 428.892 109.159 423.44 112.191C410.718 118.862 397.391 115.83 384.24 116.072" stroke="#1E1E1E" stroke-width="0.5" stroke-miterlimit="10"/>
<path d="M388.443 121.427C396.785 115.83 405.872 123.107 414.958 121.894C417.987 121.287 421.016 119.468 424.045 118.255C427.68 116.436 432.526 117.042 436.161 114.617C439.795 111.584 442.218 107.946 445.247 104.914C446.459 103.701 448.882 103.701 450.699 104.914C452.517 106.733 453.728 109.765 453.122 112.191C450.699 117.042 450.699 121.894 450.699 126.745C444.642 141.906 425.862 146.151 411.324 140.693C409.96 139.977 408.542 139.369 407.083 138.874C402.843 136.448 398.602 134.629 393.92 134.835" stroke="#1E1E1E" stroke-width="0.5" stroke-miterlimit="10"/>
<path d="M332.609 177.347C337.58 173.967 342.81 170.986 348.251 168.432C352.013 166.667 355.926 165.078 359.197 162.513C362.468 159.948 365.085 156.158 365.103 151.997C365.103 151.433 364.607 150.657 364.195 151.045" stroke="#1E1E1E" stroke-width="0.5" stroke-miterlimit="10"/>
<path d="M362.656 151.458C362.57 151.526 362.501 151.614 362.456 151.714C362.411 151.814 362.39 151.924 362.395 152.034C363.515 151.09 364.939 150.588 366.402 150.62C367.865 150.652 369.267 151.218 370.343 152.21C370.387 152.015 370.385 151.812 370.336 151.619C370.288 151.425 370.195 151.245 370.065 151.094" stroke="#1E1E1E" stroke-width="0.5" stroke-miterlimit="10"/>
<path d="M295.19 143.319C294.99 143.604 295.317 143.999 295.662 144.035C296.006 144.016 296.342 143.927 296.65 143.774C297.423 143.614 298.217 143.581 299 143.677C300.737 143.627 302.421 143.07 303.846 142.076C305.257 141.08 306.557 139.936 307.723 138.662C308.717 137.643 309.735 136.545 310.098 135.163L309.492 135.326" stroke="#1E1E1E" stroke-width="0.5" stroke-miterlimit="10"/>
<path d="M363.674 253.806C363.959 254.267 364.655 254.128 365.158 253.927L370.162 251.999C370.58 253.024 369.647 254.043 369.047 254.977C368.532 255.782 368.24 256.71 368.204 257.666C368.168 258.622 368.388 259.57 368.841 260.412C369.294 261.254 369.963 261.959 370.78 262.455C371.598 262.95 372.532 263.218 373.487 263.23C376.668 263.273 379.145 260.604 381.181 258.16C382.877 256.117 384.628 253.958 385.149 251.356C385.906 247.542 383.743 243.618 380.702 241.192C379.754 240.379 378.62 239.812 377.401 239.543C376.791 239.411 376.158 239.433 375.558 239.607C374.959 239.781 374.412 240.1 373.966 240.537" stroke="#1E1E1E" stroke-width="0.5" stroke-miterlimit="10"/>
<path d="M196.588 252.884L193.898 248.706C193.171 247.566 192.269 246.317 190.93 246.141C190.74 246.097 190.542 246.105 190.357 246.166C190.173 246.227 190.008 246.338 189.882 246.486C189.788 246.687 189.751 246.909 189.774 247.13C189.798 247.35 189.881 247.559 190.015 247.736C190.616 248.823 191.522 249.71 192.62 250.289C193.789 250.895 195.273 251.247 195.849 252.436C197.564 251.141 199.075 249.595 200.332 247.851C200.682 247.439 200.909 246.937 200.986 246.402C201.024 246.129 200.958 245.853 200.8 245.628C200.643 245.403 200.406 245.246 200.138 245.189C199.884 245.179 199.634 245.249 199.423 245.389C198.181 246.129 197.89 247.748 197.606 249.161C196.846 252.594 195.296 255.802 193.08 258.53C194.555 257.006 195.507 255.052 195.8 252.951C197.915 257.764 200.4 262.405 203.233 266.832L201.077 266.299" stroke="#1E1E1E" stroke-width="0.5" stroke-miterlimit="10"/>
<path d="M233.831 267.536C233.723 267.637 233.656 267.775 233.643 267.922C233.63 268.07 233.671 268.217 233.758 268.336C232.536 266.025 230.92 263.944 228.985 262.187C228.379 261.611 227.337 261.071 226.713 261.653C227.531 264.589 231.45 265.48 232.916 268.148C236.405 263.403 238.12 257.583 237.762 251.702C236.884 251.835 236.272 252.624 235.854 253.406C233.982 256.917 234.279 261.126 233.891 265.086C233.581 268.211 232.82 271.275 231.632 274.182L233.376 267.681C235.024 270.232 236.652 272.798 238.259 275.377C238.068 275.444 237.861 275.457 237.663 275.416C237.464 275.374 237.281 275.279 237.132 275.141" stroke="#1E1E1E" stroke-width="0.5" stroke-miterlimit="10"/>
<path d="M220.432 264.055L218.869 261.253C218.2 259.922 217.364 258.683 216.379 257.566C215.382 256.439 213.994 255.734 212.496 255.595C212.643 256.791 213.255 257.88 214.198 258.627C215.089 259.416 216.137 259.998 217.082 260.726C218.286 261.648 219.313 262.782 220.111 264.073C221.221 261.416 221.796 258.566 221.801 255.686C221.801 255.201 221.625 254.546 221.135 254.57C221.001 254.585 220.873 254.635 220.765 254.716C220.422 254.972 220.14 255.302 219.939 255.68C219.738 256.059 219.623 256.477 219.602 256.905C219.571 257.759 219.665 258.613 219.881 259.44L220.729 263.406C220.785 263.603 220.799 263.81 220.771 264.012C220.694 264.241 220.566 264.449 220.395 264.619C219.314 265.959 218.515 267.504 218.045 269.161L220.632 262.703C220.402 264.455 221.674 266.002 222.679 267.457C223.47 268.595 224.136 269.815 224.666 271.096" stroke="#1E1E1E" stroke-width="0.5" stroke-miterlimit="10"/>
<path d="M226.343 260.768C224.604 258.724 225.174 255.068 222.866 253.697C221.909 254.267 221.709 255.625 222.084 256.675C222.554 257.687 223.207 258.604 224.011 259.379C225.671 261.25 227.061 263.345 228.142 265.601L228.905 259.125C229.082 258.217 229.057 257.281 228.833 256.384C228.71 255.939 228.449 255.544 228.087 255.258C227.725 254.971 227.282 254.807 226.821 254.789C226.337 257.821 227.276 260.798 227.991 263.721C228.633 266.353 228.966 268.731 230.698 270.932C231.068 271.399 231.492 272.024 231.171 272.527" stroke="#1E1E1E" stroke-width="0.5" stroke-miterlimit="10"/>
<path d="M368.66 88.7097C367.136 87.4291 365.797 85.9433 364.68 84.2948C361.651 80.6562 354.988 79.4433 352.564 83.0819C345.901 92.1785 359.228 96.4235 365.286 100.669C365.969 101.016 366.743 101.144 367.502 101.035C368.26 100.927 368.967 100.587 369.526 100.062C373.161 93.9978 380.43 89.7527 379.219 82.4755C378.613 80.6562 375.584 80.0497 373.767 81.2626C370.738 82.4755 369.526 85.5077 368.805 88.6187" stroke="#1E1E1E" stroke-width="0.5" stroke-miterlimit="10"/>
<path d="M400.341 53.2512C399.668 50.7584 398.398 48.4673 396.642 46.576C394.885 44.6846 392.695 43.25 390.261 42.396C386.414 41.0861 381.065 42.1231 380.059 46.0346C379.49 48.2785 380.599 50.6557 382.21 52.3113C383.821 53.9668 385.881 55.113 387.813 56.3987C391.432 58.8324 394.568 61.9167 397.064 65.4952C400.785 63.9953 404.166 61.7615 407.007 58.9267C409.848 56.0919 412.091 52.714 413.601 48.9941C414.365 47.0838 414.849 44.6883 413.486 43.1541C411.518 40.9466 407.853 42.5476 405.696 44.5792C402.478 47.6193 399.992 51.3519 398.427 55.4951L397.603 52.7782" stroke="#1E1E1E" stroke-width="0.5" stroke-miterlimit="10"/>
<path d="M434.848 54.3793C437.379 55.3348 439.534 57.0828 440.994 59.3631C442.453 61.6434 443.138 64.3343 442.947 67.0356C443.143 66.3447 443.199 65.6212 443.109 64.9084C443.02 64.1956 442.787 63.5083 442.426 62.8876" stroke="#1E1E1E" stroke-width="0.5" stroke-miterlimit="10"/>
<path d="M440.826 43.1116C443.207 43.9228 445.311 45.392 446.893 47.3494C448.475 49.3068 449.472 51.6725 449.767 54.173" stroke="#1E1E1E" stroke-width="0.5" stroke-miterlimit="10"/>
<path d="M455.509 101.275C454.634 99.8242 454.148 98.172 454.098 96.4781C455.681 97.8222 456.899 99.5446 457.641 101.486C458.382 103.427 458.622 105.523 458.338 107.582C458.697 107.257 458.953 106.834 459.076 106.366C459.198 105.897 459.182 105.403 459.029 104.944" stroke="#1E1E1E" stroke-width="0.5" stroke-miterlimit="10"/>
<path d="M459.854 85.3015C463.134 89.5102 464.666 94.8236 464.13 100.135L463.422 98.3884" stroke="#1E1E1E" stroke-width="0.5" stroke-miterlimit="10"/>
<path d="M308.517 138.116C307.787 138.994 306.948 139.777 306.022 140.445C304.97 141.303 303.842 142.064 302.653 142.719C300.086 144.051 297.139 144.462 294.306 143.883C294.1 143.857 293.905 143.775 293.742 143.647C293.65 143.541 293.58 143.418 293.537 143.284C293.493 143.151 293.476 143.01 293.488 142.871C293.488 141.166 294.7 139.717 295.808 138.437C296.917 137.158 298.092 135.866 299.649 135.235C301.109 134.629 302.738 134.702 304.313 134.775C305.525 134.835 308.245 134.435 309.299 135.005C310.207 135.502 309.256 137.376 308.517 138.116Z" fill="#1E1E1E"/>
<path d="M247.873 119.025C246.528 120.111 245.067 121.045 243.517 121.809C242.306 122.415 240.979 122.943 240.101 123.986C239.917 124.165 239.779 124.386 239.699 124.63C239.619 124.874 239.599 125.134 239.64 125.387C239.822 126.024 240.549 126.297 241.185 126.466C242.166 126.727 243.16 126.952 244.147 127.182L253.307 129.268C253.628 128.413 253.307 127.449 252.955 126.618C252.006 124.277 250.952 121.985 249.793 119.741C249.1 119.681 248.436 119.434 247.873 119.025Z" stroke="#1E1E1E" stroke-width="0.5" stroke-miterlimit="10"/>
<path d="M194.455 98.1034C195.061 98.2429 195.606 97.7881 196.127 97.4666C197.071 96.8774 198.194 96.6431 199.295 96.8056C200.458 96.9754 201.609 97.5819 202.76 97.3211C202.64 96.3639 202.302 95.447 201.773 94.6406C201.244 93.893 200.634 93.2057 199.956 92.5909C198.32 91.0141 197.744 90.341 196.806 92.7364C196.575 93.2216 194.697 98.164 194.455 98.1034Z" stroke="#1E1E1E" stroke-width="0.5" stroke-miterlimit="10"/>
<path d="M205.129 111.821C206.193 110.927 207.47 110.323 208.836 110.068C209.012 110.051 209.181 109.995 209.333 109.905C209.407 109.857 209.462 109.785 209.488 109.7C209.513 109.615 209.508 109.525 209.472 109.444C209.388 109.292 209.188 109.268 209.018 109.238C208.067 109.08 206.231 106.612 205.989 106.751C205.48 107 205.28 111.227 205.129 111.821Z" stroke="#1E1E1E" stroke-width="0.5" stroke-miterlimit="10"/>
</svg>
