<svg width="80" height="47" viewBox="0 0 80 47" fill="none" xmlns="http://www.w3.org/2000/svg">
<path d="M23.8609 17.4142C23.4656 18.076 23.0941 18.7415 22.7067 19.3994C22.1692 20.315 21.6197 21.2229 21.0861 22.1424C20.5525 23.0619 20.0308 24.0198 19.4853 24.9509C18.9399 25.8819 18.4063 26.7398 17.8687 27.6439C17.6236 28.0555 17.3865 28.471 17.1493 28.8865C16.6197 29.8252 16.0979 30.7716 15.5683 31.7065C15.0386 32.6414 14.505 33.4685 13.9872 34.3495C13.7461 34.7342 13.5248 35.1574 13.2678 35.5421C12.5761 36.5847 11.8884 37.6311 11.165 38.6545C10.4891 39.6124 9.81721 40.5781 9.0583 41.4745C8.2994 42.3709 7.51678 43.0903 6.73021 43.8867C6.56024 44.0636 6.35866 44.2214 6.12545 43.9251C5.70171 43.4336 5.30586 42.9198 4.93966 42.3863C4.32272 41.3947 3.76961 40.3668 3.28352 39.3085C2.77745 38.1539 2.34319 36.9707 1.9831 35.7653C1.69232 34.7741 1.46266 33.7669 1.29535 32.7491C1.074 31.5218 0.927753 30.2869 0.730122 29.0558C0.678738 28.7249 0.809174 28.5672 1.12538 28.421C2.31117 27.8555 3.49696 27.2669 4.68275 26.6744C5.65904 26.1973 6.65906 25.728 7.61955 25.2471C8.66699 24.7316 9.70258 24.2007 10.754 23.689C11.3785 23.3812 12.0267 23.1042 12.6552 22.8003C13.7382 22.2655 14.8133 21.7154 15.9003 21.1845C16.5683 20.8575 17.26 20.5612 17.9319 20.2342C18.9003 19.7572 19.8569 19.2532 20.8292 18.7761C21.8016 18.2991 22.8332 17.8143 23.8372 17.3373L23.8609 17.4142Z" fill="#DBB947"/>
<path d="M48.4184 1.38693L51.2327 2.59495C51.4699 2.69497 51.7149 2.77961 51.9521 2.87579C53.1141 3.33361 54.2762 3.79142 55.4304 4.26462C56.8336 4.83785 58.2249 5.41878 59.6241 6.01124L64.0273 7.83865L66.9918 9.05821L71.565 10.9587C72.5848 11.3819 73.6085 11.8012 74.6204 12.2475C74.7389 12.3014 74.822 12.5014 74.8654 12.6322C75.15 13.6133 75.4346 14.5943 75.6876 15.583C76.1145 17.2488 76.5413 18.9108 76.9287 20.5843C77.1777 21.6539 77.3991 22.7349 77.5572 23.8198C77.8101 25.5587 78.071 27.3015 78.2014 29.052C78.3549 30.8689 78.4037 32.6927 78.3477 34.515C78.2652 35.9981 78.0536 37.4717 77.7153 38.92C77.2605 40.8856 76.4709 42.7633 75.3793 44.4753C75.1105 44.9293 74.7192 44.6369 74.4386 44.4753C73.9391 44.2098 73.4619 43.9062 73.0117 43.5674C72.3325 43.0974 71.6867 42.5833 71.0788 42.0285C70.1302 41.1052 69.2132 40.1395 68.3515 39.1277C67.6203 38.266 66.9641 37.3311 66.3159 36.3962C65.474 35.1844 64.6637 33.9494 63.8653 32.7106C63.2368 31.7296 62.64 30.7255 62.0431 29.7291C61.3751 28.6172 60.7032 27.5054 60.0668 26.3782C59.715 25.7588 59.4186 25.1048 59.0866 24.4546C58.6083 23.5428 58.1063 22.6426 57.636 21.7231C57.1656 20.8036 56.6755 19.7572 56.1932 18.78C55.711 17.8028 55.1893 16.8064 54.7071 15.8138C54.3553 15.0906 54.0351 14.3519 53.7031 13.6171C53.0865 12.2591 52.462 10.901 51.8533 9.53525C51.4264 8.585 51.0311 7.61167 50.6082 6.67296C50.1299 5.59959 49.6279 4.53777 49.1576 3.46056C48.869 2.8027 48.62 2.12559 48.367 1.45618L48.4184 1.38693Z" fill="#DBB947"/>
<path d="M45.2637 36.0539C44.9554 34.3573 45.0661 32.6876 45.1174 31.0179C45.128 30.6585 45.1783 30.3012 45.2676 29.9523C45.4283 29.2168 45.6572 28.497 45.9514 27.8017C46.5957 26.409 48.7815 25.7435 50.161 26.5014C51.2163 27.0823 51.6155 28.071 51.6748 29.1944C51.7317 30.5483 51.5987 31.9034 51.2796 33.2224C51.1294 33.8533 50.9159 34.4727 50.7025 35.1921H64.4102C63.9675 34.542 63.4892 33.8802 63.0544 33.1916C62.2639 31.9567 61.5011 30.714 60.754 29.4598C59.9161 28.0595 59.0952 26.6488 58.2915 25.2279C57.6275 24.0507 56.9951 22.8542 56.3627 21.6578C55.9239 20.8422 55.501 20.0189 55.082 19.1917C54.4628 17.976 53.8475 16.7565 53.2361 15.5331C52.7737 14.6059 52.327 13.671 51.8843 12.7323C51.2598 11.4166 50.6406 10.0957 50.0266 8.76973C49.5958 7.84641 49.1689 6.91539 48.7538 5.98437C48.1214 4.56476 47.5048 3.14131 46.8764 1.72555C46.8002 1.60913 46.7085 1.50305 46.6036 1.41008C46.2755 2.21799 45.987 2.98358 45.6589 3.71839C45.1767 4.83022 44.655 5.92666 44.1767 7.04234C43.8091 7.90027 43.5008 8.78512 43.1372 9.64304C42.651 10.7972 42.1332 11.9167 41.6312 13.0555C41.6312 13.0824 41.6115 13.1132 41.5996 13.1401C41.1305 14.2789 40.6615 15.4189 40.1925 16.5603C39.7023 17.7452 39.2201 18.9301 38.726 20.1112C38.311 21.1076 37.8802 22.1002 37.4612 23.0966C37.0422 24.093 36.5798 25.1972 36.1292 26.2436C35.805 27.013 35.4691 27.744 35.1173 28.4827C35.022 28.6838 34.9933 28.9089 35.0351 29.1266C35.0768 29.3444 35.1871 29.5442 35.3505 29.6984C35.9039 30.3755 36.4533 31.0564 36.9315 31.7835C37.6035 32.7723 38.3584 33.7071 39.0541 34.6805C39.122 34.7525 39.1698 34.8403 39.193 34.9354C39.2162 35.0305 39.2141 35.1298 39.1867 35.2239C39.1594 35.3179 39.1078 35.4036 39.0369 35.4728C38.9659 35.542 38.878 35.5924 38.7814 35.6192C38.7263 35.6224 38.6713 35.6125 38.621 35.5904C38.5707 35.5683 38.5267 35.5346 38.4928 35.4922C37.7023 34.4227 36.9513 33.3301 36.1568 32.2683C35.4572 31.3257 34.7062 30.4216 34.0026 29.4829C33.477 28.7827 33.0026 28.0518 32.4809 27.3477C31.9591 26.6437 31.4018 25.982 30.8801 25.2818C30.3583 24.5816 29.7971 23.7699 29.2437 23.0197C28.7417 22.3349 28.2121 21.6693 27.7022 20.9884C27.1923 20.3074 26.6468 19.5649 26.1211 18.8532C25.6784 18.2569 25.2397 17.6567 24.7337 16.9719C24.3385 17.6721 24.0223 18.3107 23.6744 18.9417C23.1804 19.8342 22.6744 20.7191 22.1804 21.6078C21.8839 22.1425 21.6033 22.6811 21.3108 23.2159C20.7772 24.1815 20.2357 25.1395 19.6981 26.1128C19.4491 26.5629 19.1961 27.0169 18.959 27.4747C18.6823 28.0018 18.4293 28.5365 18.1447 29.0597C17.8167 29.6714 17.457 30.2639 17.121 30.8756C16.453 32.099 15.7929 33.3301 15.1447 34.5535C15.0301 34.7612 14.8917 34.9382 14.7494 35.2075H23.714C23.714 34.2496 23.6863 33.3455 23.714 32.4452C23.7223 31.8304 23.8032 31.2185 23.9551 30.6217C24.3503 29.2675 25.465 28.2634 27.0026 28.4173C27.2735 28.4516 27.5319 28.5493 27.7557 28.7021C27.9794 28.8549 28.1617 29.0581 28.2872 29.2944C28.6161 29.8818 28.754 30.5526 28.6824 31.218C28.6627 32.0644 28.6152 32.9108 28.5164 33.7494C28.4468 34.3358 28.3143 34.9135 28.1212 35.473C28.05 35.6692 27.9038 36.1308 27.6626 36.1308C27.129 36.1308 27.0184 36.1308 26.3583 36.1308C22.2634 36.1308 18.453 36.1308 14.5004 36.2386C14.4185 36.2454 14.3389 36.2688 14.2668 36.3072C14.1947 36.3457 14.1316 36.3983 14.0814 36.4617C13.6862 37.0195 13.3462 37.6159 12.9747 38.1698C12.5478 38.82 12.1209 39.474 11.6782 40.1165C11.0181 41.0822 10.3857 42.0709 9.65449 42.9827C8.92325 43.8944 8.1683 44.6369 7.39754 45.441C7.20011 45.676 6.95699 45.8708 6.68211 46.0142C6.62629 46.0596 6.56094 46.0925 6.49066 46.1106C6.42037 46.1288 6.34686 46.1317 6.27529 46.1192C6.20371 46.1068 6.13581 46.0792 6.07635 46.0385C6.01689 45.9977 5.96732 45.9448 5.93111 45.8834C5.16309 45.017 4.46033 44.0977 3.82832 43.1327C3.60302 42.7941 3.45677 42.4748 3.26309 42.1363C2.54591 40.7739 1.98774 39.3377 1.59904 37.8544C1.01039 35.9065 0.596446 33.9126 0.361868 31.8951C0.267005 31.0449 0.132614 30.2023 0.0140354 29.356C-0.0125103 29.2616 -0.00112811 29.161 0.0458652 29.0745C0.0928584 28.988 0.171933 28.9222 0.267003 28.8905C0.950807 28.5711 1.60694 28.198 2.27098 27.8402C3.18799 27.34 4.09314 26.8245 5.03782 26.3359C5.66234 26.0012 6.31847 25.7165 6.94694 25.3857C7.91533 24.8817 8.86792 24.3546 9.83236 23.8468C10.4924 23.5044 11.1723 23.1928 11.8087 22.8465C13.1526 22.1464 14.4846 21.4231 15.8324 20.7229C16.8206 20.2112 17.8087 19.7419 18.8167 19.2225C19.7258 18.7455 20.6072 18.2222 21.5124 17.7375C22.0578 17.4451 22.627 17.2027 23.1725 16.9142C23.7179 16.6257 24.1804 16.3717 24.6468 16.114C24.7838 16.0399 24.9446 16.0194 25.0965 16.0565C25.2485 16.0937 25.3802 16.1857 25.465 16.314C25.6508 16.5949 25.8286 16.8642 26.0184 17.1296C26.4729 17.7606 26.9354 18.3838 27.4018 19.0071C28.0381 19.8611 28.6824 20.7114 29.3148 21.5693C30.0303 22.5426 30.722 23.5275 31.4453 24.4931C32.1686 25.4588 32.9078 26.3667 33.6311 27.3093C33.8406 27.5863 34.0264 27.8863 34.2596 28.2403C34.6311 27.3323 34.9592 26.5167 35.307 25.705C35.8011 24.5508 36.3189 23.3967 36.8209 22.2425C37.1213 21.5385 37.398 20.8268 37.6944 20.1266C38.2399 18.8532 38.7972 17.5875 39.3387 16.314C39.6312 15.6254 39.9 14.9291 40.1885 14.2404C40.6193 13.1978 41.062 12.1629 41.4968 11.1242C41.9593 10.0162 42.4138 8.90053 42.8763 7.79255C43.2992 6.78459 43.7182 5.77278 44.153 4.76867C44.6392 3.65683 45.1491 2.56039 45.6313 1.44855C45.908 0.809921 45.8447 0.952267 46.0265 0.536772C46.078 0.393371 46.1602 0.262242 46.2676 0.152054C46.367 0.082606 46.4811 0.0358211 46.6015 0.0151745C46.7219 -0.00547206 46.8456 0.00054942 46.9633 0.0327914C47.1336 -0.00527217 47.3099 -0.0102527 47.4822 0.0181346C47.6545 0.046522 47.8193 0.107719 47.9673 0.19822C48.2211 0.354561 48.4852 0.494639 48.7578 0.617562C50.6827 1.41393 52.6393 2.13335 54.58 2.8874C55.6275 3.2952 56.667 3.71454 57.7065 4.12619L60.7303 5.32266L63.8371 6.55375L68.347 8.34269L71.5091 9.59302C72.4854 9.97774 73.4656 10.3625 74.434 10.778C74.9518 10.9972 75.4538 11.2512 75.9479 11.5089C76.0388 11.5551 76.0863 11.7013 76.1218 11.809C76.3867 12.6554 76.6554 13.4979 76.9123 14.3481C77.3788 16.0217 77.8254 17.7029 78.2721 19.3802C78.4183 19.9188 78.6278 20.8114 78.7266 21.3615C78.9677 22.6965 79.1772 24.0546 79.446 25.3664C80.027 28.2326 80.0468 31.1372 79.9638 34.0341C79.9324 35.3766 79.7736 36.7134 79.4895 38.0275C79.21 39.3008 78.8294 40.551 78.3511 41.767C77.8465 42.902 77.2463 43.9945 76.5566 45.0332C76.0981 45.8026 75.9835 45.7719 75.1337 45.3602C74.4652 45.0734 73.8122 44.7537 73.1771 44.4023C72.515 43.9771 71.885 43.5066 71.2917 42.9942C70.6435 42.4594 70.0111 41.8978 69.4221 41.3053C68.6948 40.5743 68.0387 39.7664 67.3826 38.997C66.7264 38.2275 66.1375 37.3658 65.4853 36.5733C65.3533 36.4248 65.1846 36.3115 64.9951 36.2442C64.8056 36.1768 64.6015 36.1577 64.4023 36.1885C58.1914 36.1655 51.9792 36.136 45.7657 36.1001L45.2637 36.0539ZM47.7855 1.24465L47.7064 1.33314C47.9831 2.00255 48.244 2.67965 48.5444 3.33752C49.0345 4.41472 49.5602 5.47654 50.0582 6.54991C50.497 7.50016 50.912 8.4735 51.3547 9.41221C51.991 10.778 52.6393 12.136 53.2836 13.4941C53.6314 14.2289 53.9674 14.9675 54.331 15.6908C54.833 16.6834 55.3666 17.6644 55.8804 18.657C56.3943 19.6495 56.8686 20.6267 57.3864 21.6001C57.9042 22.5734 58.3983 23.4198 58.8963 24.3316C59.2441 24.9663 59.5485 25.6204 59.92 26.2551C60.588 27.3824 61.2876 28.4942 61.9872 29.606C62.6117 30.6063 63.2284 31.6066 63.8845 32.5876C64.7185 33.8264 65.5644 35.0613 66.4379 36.2732C67.1138 37.208 67.7976 38.1429 68.5644 39.0085C69.4616 40.0165 70.4182 40.9821 71.4063 41.9055C72.0413 42.4628 72.7148 42.9769 73.4222 43.4443C73.8917 43.7853 74.3887 44.089 74.9084 44.3523C75.2009 44.5023 75.608 44.7947 75.8886 44.3523C77.0166 42.6568 77.8412 40.7875 78.3274 38.8239C78.6732 37.3661 78.8888 35.882 78.9717 34.3881C79.0309 32.5657 78.9794 30.7415 78.8175 28.9251C78.6792 27.1746 78.4222 25.4318 78.1456 23.6929C77.9835 22.608 77.7503 21.527 77.4934 20.4574C77.0981 18.7839 76.6436 17.1219 76.2009 15.4561C75.9321 14.4674 75.6356 13.4864 75.3392 12.5053C75.2957 12.3591 75.2088 12.1591 75.0862 12.1206C74.0309 11.6743 72.9637 11.255 71.9004 10.8318L67.1336 8.93131L64.0426 7.71176L59.4536 5.88434C57.9951 5.30342 56.5445 4.73019 55.082 4.13773C53.8764 3.66453 52.6669 3.21056 51.4574 2.7489C51.2084 2.65272 50.9555 2.56808 50.7064 2.46805L47.7855 1.24465ZM22.9906 18.1722L22.9393 18.0991C21.9906 18.5839 21.042 19.0571 20.0973 19.5495C19.1526 20.042 18.2791 20.5344 17.3582 21.0153C16.7257 21.3461 16.0735 21.6424 15.4411 21.9732C14.4134 22.508 13.4016 23.062 12.3739 23.5967C11.781 23.9084 11.1881 24.1815 10.5794 24.4931C9.58729 25.0087 8.60309 25.5434 7.61493 26.0628C6.69397 26.5475 5.76511 27.0169 4.8481 27.4978C3.72555 28.0825 2.61091 28.6866 1.47651 29.2559C1.33818 29.2914 1.21949 29.3779 1.14568 29.4972C1.07187 29.6164 1.04875 29.759 1.08125 29.8946C1.26702 31.1334 1.40536 32.3798 1.61485 33.6109C1.78174 34.638 2.00739 35.6553 2.29075 36.6579C2.62616 37.8742 3.03128 39.0713 3.5042 40.2435C3.94799 41.3079 4.47662 42.337 5.08525 43.3212C5.42123 43.8598 5.84416 44.3523 6.22361 44.8601C6.441 45.1602 6.61887 44.9986 6.79279 44.8216C7.53588 44.0214 8.31455 43.2481 8.99044 42.3979C9.70982 41.49 10.3462 40.5205 10.9668 39.5587C11.6506 38.5276 12.3027 37.4774 12.9431 36.4271C13.1881 36.0424 13.3937 35.6269 13.6229 35.2268C14.1249 34.3381 14.6427 33.457 15.1328 32.5645C15.6229 31.672 16.1368 30.6717 16.6427 29.7291C16.8641 29.3098 17.0894 28.8905 17.3186 28.475C17.8285 27.5747 18.3463 26.6822 18.8443 25.7819C19.3424 24.8817 19.8483 23.893 20.3621 22.9543C20.876 22.0156 21.3819 21.1192 21.8879 20.1958C22.2673 19.5187 22.631 18.8493 22.9906 18.1838V18.1722Z" fill="#291000"/>
</svg>
