<svg width="66" height="44" viewBox="0 0 66 44" fill="none" xmlns="http://www.w3.org/2000/svg">
<rect width="66" height="44" rx="6" fill="white"/>
<path d="M23.9283 31.8854C23.4692 32.0718 23.033 32.0308 22.6198 31.7623C22.2066 31.4937 22 31.1035 22 30.5916V25.3817C22 25.0553 22.0918 24.7639 22.2755 24.5075C22.4591 24.2511 22.7116 24.0879 23.033 24.018L33.0187 21.5005L23.033 18.9829C22.7116 18.913 22.4591 18.7498 22.2755 18.4934C22.0918 18.237 22 17.9456 22 17.6192V12.4093C22 11.8965 22.2066 11.5058 22.6198 11.2372C23.033 10.9687 23.4692 10.9281 23.9283 11.1156L45.1392 20.2067C45.7131 20.4631 46 20.8944 46 21.5005C46 22.1065 45.7131 22.5378 45.1392 22.7942L23.9283 31.8854Z" fill="#291000"/>
</svg>
