<svg width="161" height="43" viewBox="0 0 161 43" fill="none" xmlns="http://www.w3.org/2000/svg">
<ellipse cx="21.5" cy="22.0729" rx="21.5" ry="20.9271" fill="#291000"/>
<rect x="9.5" y="9.64587" width="24" height="24" rx="6.5" fill="#291000" stroke="white" stroke-width="3"/>
<circle cx="21.5" cy="21.6461" r="5" fill="#291000" stroke="white" stroke-width="3"/>
<circle cx="28.5" cy="14.6459" r="1.5" fill="white"/>
<path d="M102 21.5539C102 9.65614 92.368 0 80.5 0C68.632 0 59 9.65614 59 21.5539C59 31.986 66.396 40.6722 76.2 42.6767V28.02H71.9V21.5539H76.2V16.1654C76.2 12.0055 79.5755 8.62155 83.725 8.62155H89.1V15.0877H84.8C83.6175 15.0877 82.65 16.0576 82.65 17.2431V21.5539H89.1V28.02H82.65V43C93.5075 41.9223 102 32.7403 102 21.5539Z" fill="#291000"/>
<g clip-path="url(#clip0_1557_5575)">
<path d="M137.442 0.0923576C130.723 0.789425 124.836 4.44275 121.258 10.1369C116.185 18.1994 117.134 28.857 123.542 35.8781C127.095 39.7666 131.529 42.0929 136.854 42.8488C137.845 42.9916 141.146 42.9832 142.187 42.8488C147.05 42.1769 151.4 40.0185 154.709 36.6424C155.801 35.5338 156.028 35.2734 156.75 34.316C158.9 31.4521 160.302 27.9584 160.848 24.1455C160.991 23.1545 160.991 19.8455 160.848 18.8545C160.487 16.3097 159.824 14.1429 158.774 12.0181C157.648 9.76736 156.506 8.16325 154.717 6.35759C151.4 2.99821 147.251 0.907005 142.481 0.201534C141.448 0.0503654 138.466 -0.0168228 137.442 0.0923576ZM144.077 9.63298C144.261 11.0691 144.715 12.1693 145.504 13.1267C146.529 14.3697 148.057 15.1676 149.72 15.3355L150.249 15.3943V17.3763V19.3584L149.46 19.308C149.023 19.2744 148.452 19.1988 148.192 19.1484C147.05 18.9133 145.588 18.2918 144.606 17.6283C144.345 17.4435 144.11 17.3008 144.085 17.3008C144.068 17.3008 144.051 19.5179 144.06 22.2306C144.077 27.1185 144.077 27.1773 143.883 27.9248C143.186 30.6627 141.087 32.7959 138.366 33.5181C137.358 33.7785 135.896 33.8205 134.88 33.6105C131.848 32.989 129.497 30.6711 128.875 27.7064C128.707 26.9338 128.716 25.4388 128.884 24.6242C129.027 23.9103 129.421 22.9193 129.858 22.197C130.228 21.584 131.252 20.4838 131.89 20.0302C133.352 18.9972 135.342 18.4345 136.98 18.6025L137.568 18.6613V20.7021V22.7429L137.257 22.659C137.081 22.6086 136.602 22.5918 136.182 22.6086C135.225 22.6506 134.502 22.9697 133.847 23.6416C131.756 25.7664 132.94 29.2937 135.905 29.7556C137.837 30.058 139.718 28.6386 140.003 26.665C140.054 26.3123 140.087 22.7597 140.087 17.6535V9.23825H142.053H144.026L144.077 9.63298Z" fill="#291000"/>
</g>
<defs>
<clipPath id="clip0_1557_5575">
<rect width="43" height="43" fill="white" transform="translate(118)"/>
</clipPath>
</defs>
</svg>
