<svg width="229" height="64" viewBox="0 0 229 64" fill="none" xmlns="http://www.w3.org/2000/svg">
<path d="M2.56 11.9041C1.14643 11.9041 0 13.0502 0 14.4641V49.5361C0 50.9499 1.14701 52.0961 2.56 52.0961H61.44C62.8536 52.0961 64 50.9499 64 49.5361V14.4641C64 13.0502 62.853 11.9041 61.44 11.9041H2.56ZM38.224 23.882C39.7816 23.882 41.03 24.2261 41.826 24.546L41.282 27.9681L40.922 27.786C40.1804 27.4661 39.2279 27.1582 37.914 27.18C36.3411 27.18 35.614 27.8817 35.614 28.5381C35.6049 29.2778 36.4636 29.7656 37.868 30.4961C40.1859 31.6231 41.2572 32.9896 41.2421 34.786C41.2108 38.0639 38.4693 40.1821 34.246 40.1821C32.4442 40.1622 30.7084 39.7808 29.77 39.34L30.334 35.804L30.852 36.0561C32.1715 36.6456 33.0259 36.8841 34.634 36.8841C35.7887 36.8841 37.0282 36.4006 37.038 35.3421C37.0455 34.6509 36.5199 34.1581 34.956 33.3841C33.432 32.6286 31.4116 31.3631 31.434 29.0941C31.4579 26.0246 34.2541 23.882 38.224 23.882ZM5.65997 24.3841H12.146C13.0194 24.4171 13.7245 24.6983 13.968 25.6461L15.366 32.8621C15.3662 32.8627 15.3658 32.8653 15.366 32.866L15.786 35.0281L19.724 24.3841H23.984L17.652 39.9641L13.396 39.9681L10.008 27.396C12.0239 28.464 13.7401 29.6996 14.734 31.4001C14.4778 30.862 14.1401 30.2546 13.708 29.6561C13.2049 28.959 12.1182 28.0589 11.664 27.676C10.0813 26.3418 7.93184 25.2642 5.60998 24.6941L5.65997 24.3841ZM25.678 24.402H29.844L27.238 39.9581H23.072L25.678 24.402ZM49.208 24.402H52.364L55.668 39.9581H51.88C51.88 39.9581 51.5042 38.1709 51.382 37.626C50.7866 37.626 46.6225 37.6201 46.154 37.6201C45.9955 38.0412 45.294 39.958 45.294 39.958H41.008L47.07 25.6941C47.4992 24.6804 48.2308 24.402 49.208 24.402ZM49.518 28.586C49.313 29.1647 48.9561 30.0991 48.98 30.058C48.98 30.058 47.6976 33.4782 47.362 34.3661L50.732 34.364C50.4189 32.8807 50.1056 31.3974 49.792 29.9142L49.518 28.5862V28.586Z" fill="black"/>
<g clip-path="url(#clip0_1667_5359)">
<path d="M83.7255 49.8112V47.2962C83.7255 46.3318 83.1491 45.7032 82.1612 45.7032C81.6673 45.7032 81.1322 45.8709 80.7617 46.4158C80.4737 45.9547 80.0621 45.7032 79.4447 45.7032C79.0329 45.7032 78.6215 45.8289 78.2921 46.29V45.787H77.4277V49.8112H78.2921V47.5895C78.2921 46.877 78.6626 46.5415 79.239 46.5415C79.815 46.5415 80.1034 46.9188 80.1034 47.5895V49.8112H80.9677V47.5895C80.9677 46.877 81.3791 46.5415 81.9142 46.5415C82.4906 46.5415 82.7786 46.9188 82.7786 47.5895V49.8112H83.7255ZM96.5263 45.787H95.127V44.5714H94.2626V45.787H93.4805V46.5833H94.2624V48.4279C94.2624 49.3503 94.6329 49.895 95.6209 49.895C95.9914 49.895 96.4027 49.7694 96.6911 49.6017L96.444 48.8471C96.197 49.0147 95.909 49.0568 95.7032 49.0568C95.2916 49.0568 95.127 48.8053 95.127 48.3859V46.5833H96.5263V45.787ZM103.853 45.703C103.359 45.703 103.03 45.9547 102.824 46.29V45.787H101.96V49.8112H102.824V47.5476C102.824 46.877 103.112 46.4997 103.647 46.4997C103.812 46.4997 104.018 46.5417 104.182 46.5835L104.429 45.7452C104.265 45.7032 104.018 45.7032 103.853 45.7032V45.703ZM92.7808 46.1224C92.369 45.8289 91.7929 45.7032 91.1754 45.7032C90.1877 45.7032 89.5292 46.2062 89.5292 47.0027C89.5292 47.6735 90.023 48.0506 90.8874 48.1765L91.299 48.2185C91.7518 48.3021 91.9987 48.4279 91.9987 48.6376C91.9987 48.9309 91.6695 49.1406 91.0931 49.1406C90.5169 49.1406 90.0641 48.9309 89.7759 48.7214L89.3644 49.3921C89.8172 49.7274 90.4346 49.895 91.0519 49.895C92.2044 49.895 92.8631 49.3503 92.8631 48.5956C92.8631 47.883 92.328 47.5056 91.5047 47.38L91.0931 47.338C90.7226 47.296 90.4346 47.2123 90.4346 46.9608C90.4346 46.6673 90.7226 46.4997 91.1754 46.4997C91.6695 46.4997 92.1634 46.7092 92.4103 46.835L92.7808 46.1224ZM115.749 45.7032C115.255 45.7032 114.925 45.9547 114.719 46.29V45.787H113.855V49.8112H114.719V47.5476C114.719 46.877 115.008 46.4997 115.543 46.4997C115.707 46.4997 115.913 46.5417 116.078 46.5835L116.325 45.7452C116.16 45.7032 115.913 45.7032 115.749 45.7032ZM104.717 47.7991C104.717 49.0147 105.541 49.895 106.817 49.895C107.393 49.895 107.804 49.7694 108.216 49.4341L107.804 48.7214C107.475 48.9729 107.146 49.0986 106.775 49.0986C106.076 49.0986 105.582 48.5956 105.582 47.7991C105.582 47.0447 106.076 46.5415 106.775 46.4997C107.146 46.4997 107.475 46.6253 107.804 46.877L108.216 46.1644C107.804 45.8289 107.393 45.7032 106.817 45.7032C105.541 45.7032 104.717 46.5835 104.717 47.7991ZM112.703 47.7991V45.787H111.838V46.29C111.55 45.9129 111.139 45.7032 110.603 45.7032C109.492 45.7032 108.628 46.5835 108.628 47.7991C108.628 49.0147 109.492 49.895 110.603 49.895C111.18 49.895 111.591 49.6856 111.838 49.3082V49.8112H112.703V47.7991ZM109.533 47.7991C109.533 47.0865 109.986 46.4997 110.727 46.4997C111.427 46.4997 111.921 47.0447 111.921 47.7991C111.921 48.5118 111.427 49.0986 110.727 49.0986C109.986 49.0566 109.533 48.5118 109.533 47.7991ZM99.2019 45.7032C98.0494 45.7032 97.226 46.5415 97.226 47.7991C97.226 49.0568 98.0492 49.895 99.243 49.895C99.8192 49.895 100.396 49.7274 100.848 49.3503L100.437 48.7214C100.107 48.9729 99.6958 49.1406 99.2842 49.1406C98.7491 49.1406 98.214 48.8891 98.0904 48.1763H101.013V47.8411C101.054 46.5415 100.313 45.7032 99.2019 45.7032ZM99.2019 46.4577C99.7369 46.4577 100.108 46.7932 100.19 47.422H98.1317C98.214 46.877 98.5845 46.4577 99.2019 46.4577ZM120.647 47.7991V44.1941H119.782V46.29C119.494 45.9129 119.083 45.7032 118.547 45.7032C117.436 45.7032 116.572 46.5835 116.572 47.7991C116.572 49.0147 117.436 49.895 118.547 49.895C119.124 49.895 119.535 49.6856 119.782 49.3082V49.8112H120.647V47.7991ZM117.477 47.7991C117.477 47.0865 117.93 46.4997 118.671 46.4997C119.371 46.4997 119.865 47.0447 119.865 47.7991C119.865 48.5118 119.371 49.0986 118.671 49.0986C117.93 49.0566 117.477 48.5118 117.477 47.7991ZM88.5823 47.7991V45.787H87.7179V46.29C87.4297 45.9129 87.0182 45.7032 86.483 45.7032C85.3717 45.7032 84.5074 46.5835 84.5074 47.7991C84.5074 49.0147 85.3717 49.895 86.483 49.895C87.0594 49.895 87.471 49.6856 87.7179 49.3082V49.8112H88.5823V47.7991ZM85.3717 47.7991C85.3717 47.0865 85.8245 46.4997 86.5654 46.4997C87.2651 46.4997 87.7592 47.0447 87.7592 47.7991C87.7592 48.5118 87.2651 49.0986 86.5654 49.0986C85.8245 49.0566 85.3717 48.5118 85.3717 47.7991Z" fill="black"/>
<path d="M92.4941 15.2278H105.46V38.9541H92.4941V15.2278Z" fill="#FF5F00"/>
<path d="M93.3167 27.091C93.3167 22.2703 95.5393 17.9945 98.9556 15.2277C96.4449 13.2156 93.2756 12 89.8181 12C81.6268 12 75 18.7489 75 27.091C75 35.4328 81.6268 42.1819 89.8179 42.1819C93.2754 42.1819 96.4447 40.9663 98.9556 38.954C95.5393 36.2293 93.3167 31.9116 93.3167 27.091Z" fill="#EB001B"/>
<path d="M122.952 27.091C122.952 35.4328 116.325 42.1819 108.134 42.1819C104.676 42.1819 101.507 40.9663 98.9961 38.954C102.454 36.1875 104.635 31.9116 104.635 27.091C104.635 22.2703 102.412 17.9945 98.9961 15.2277C101.507 13.2156 104.676 12 108.134 12C116.325 12 122.952 18.7909 122.952 27.091Z" fill="#F79E1B"/>
</g>
<g clip-path="url(#clip1_1667_5359)">
<path d="M148.809 20.1408C149.904 19.7715 151.051 19.5842 152.205 19.5859C157.385 19.5859 161.71 23.3104 162.701 28.2609L170.044 26.7446C168.359 18.3315 161.014 12 152.205 12C150.243 11.9982 148.294 12.3178 146.434 12.9466L148.809 20.1408Z" fill="#FFCC00"/>
<path d="M140.144 44.2303L145.109 38.5473C142.893 36.5595 141.494 33.6584 141.494 30.4263C141.494 27.1966 142.891 24.2969 145.106 22.3115L140.14 16.6279C136.375 20.0038 134 24.9349 134 30.4263C134 35.9211 136.376 40.8537 140.144 44.2303Z" fill="#00A0DE"/>
<path d="M162.7 32.6016C161.705 37.5496 157.384 41.2669 152.206 41.2669C151.017 41.2669 149.873 41.0729 148.807 40.71L146.428 47.9072C148.242 48.5202 150.185 48.8523 152.206 48.8523C161.006 48.8523 168.35 42.5313 170.042 34.1259L162.7 32.6016Z" fill="#EC3413"/>
<path d="M176.466 38.7869C176.225 38.3925 175.898 37.7614 175.702 37.2971C174.539 34.5644 174.483 31.7364 175.465 29.0217C176.545 26.0444 178.608 23.7651 181.273 22.6046C184.623 21.145 188.328 21.4328 191.54 23.3615C193.579 24.546 195.026 26.375 196.124 28.9608L196.226 29.2123L196.416 29.7119C196.446 29.7925 196.476 29.8708 196.506 29.946L176.466 38.7869ZM183.158 26.9914C180.779 28.0265 179.552 30.2857 179.804 32.9347L189.883 28.5439C188.15 26.4818 185.894 25.7986 183.158 26.9914ZM195.035 39.1815L191.14 36.5449L191.134 36.5507L190.925 36.4084C190.324 37.3963 189.386 38.1964 188.202 38.7161C185.949 39.7078 183.861 39.4529 182.362 38.1218L182.224 38.3341C182.222 38.3316 182.222 38.3297 182.219 38.3297L179.663 42.202C180.299 42.6494 180.98 43.0271 181.695 43.3289C184.519 44.5164 187.409 44.4614 190.256 43.2081C192.316 42.3047 193.931 40.9272 195.035 39.1813V39.1815ZM203.511 16.9019V38.4295L206.817 39.7859L204.938 44.2234L201.289 42.685C200.469 42.3261 199.912 41.7764 199.49 41.1562C199.086 40.524 198.784 39.6563 198.784 38.4881V16.9019H203.511ZM212.077 32.9452C212.078 31.1121 212.878 29.4681 214.144 28.3508L210.751 24.522C208.45 26.5805 207.001 29.5885 206.999 32.9399C206.995 36.2925 208.442 39.3036 210.74 41.3675L214.129 37.5349C212.869 36.4132 212.075 34.7742 212.077 32.9452ZM218.104 39.0555C217.436 39.0536 216.793 38.9418 216.193 38.7397L214.573 43.6155C215.709 44.0011 216.9 44.1981 218.099 44.1988C223.47 44.2041 227.955 40.3463 228.994 35.218L224.015 34.1887C223.448 36.9684 221.017 39.0573 218.104 39.0555ZM218.119 21.7032C216.922 21.7008 215.732 21.8947 214.596 22.2772L216.202 27.1574C216.819 26.9508 217.464 26.8454 218.114 26.8453C221.034 26.8481 223.467 28.9494 224.02 31.737L229 30.7145C227.975 25.5786 223.494 21.7066 218.119 21.7032Z" fill="black"/>
</g>
<defs>
<clipPath id="clip0_1667_5359">
<rect width="48" height="38" fill="white" transform="translate(75 12)"/>
</clipPath>
<clipPath id="clip1_1667_5359">
<rect width="95" height="37" fill="white" transform="translate(134 12)"/>
</clipPath>
</defs>
</svg>
