<svg width="36" height="31" viewBox="0 0 36 31" fill="none" xmlns="http://www.w3.org/2000/svg">
<path d="M31.6121 0.607085C30.8265 -0.202374 29.5273 -0.202376 28.7417 0.607081L12.7593 17.0747C11.9737 17.8842 10.6745 17.8842 9.88893 17.0747L6.64493 13.7322C5.85933 12.9228 4.56013 12.9228 3.77453 13.7322L0.564756 17.0394C-0.18831 17.8153 -0.188313 19.0493 0.564749 19.8252L5.32729 24.7324L9.92809 29.4729C10.7137 30.2824 12.0129 30.2824 12.7985 29.4729L17.3602 24.7728L34.861 6.74053C35.6141 5.9646 35.6141 4.73065 34.861 3.95472L31.6121 0.607085Z" fill="white"/>
<path d="M29.1006 0.955444C29.6898 0.348385 30.6637 0.34845 31.2529 0.955444L34.502 4.3031C35.0667 4.88504 35.0667 5.81002 34.502 6.39197L17.001 24.4242L12.4395 29.1244C11.8503 29.7315 10.8763 29.7315 10.2871 29.1244L5.68652 24.3842L0.923828 19.4769C0.359056 18.895 0.359105 17.97 0.923828 17.3881L4.13379 14.0804C4.72301 13.4736 5.69701 13.4734 6.28613 14.0804L9.53027 17.4232C10.5123 18.4348 12.1362 18.4348 13.1182 17.4232L29.1006 0.955444Z" stroke="#291000" stroke-opacity="0.55"/>
</svg>
