<svg width="29" height="29" viewBox="0 0 29 29" fill="none" xmlns="http://www.w3.org/2000/svg">
<path d="M14.5009 24.65L14.0369 24.128C13.7469 23.838 6.96094 15.834 6.96094 11.02C6.96094 6.84398 10.3249 3.47998 14.5009 3.47998C18.6769 3.47998 22.0409 6.84398 22.0409 11.02C22.0409 15.834 15.2549 23.838 14.9649 24.186L14.5009 24.65ZM14.5009 4.63998C10.9629 4.63998 8.12094 7.48198 8.12094 11.02C8.12094 14.732 12.9929 20.996 14.5009 22.852C16.0089 20.996 20.8809 14.732 20.8809 11.02C20.8809 7.48198 18.0389 4.63998 14.5009 4.63998Z" fill="#291000" fill-opacity="0.55"/>
<path d="M14.4996 13.92C12.8756 13.92 11.5996 12.644 11.5996 11.02C11.5996 9.396 12.8756 8.12 14.4996 8.12C16.1236 8.12 17.3996 9.396 17.3996 11.02C17.3996 12.644 16.1236 13.92 14.4996 13.92ZM14.4996 9.28C13.5136 9.28 12.7596 10.034 12.7596 11.02C12.7596 12.006 13.5136 12.76 14.4996 12.76C15.4856 12.76 16.2396 12.006 16.2396 11.02C16.2396 10.034 15.4856 9.28 14.4996 9.28Z" fill="#291000" fill-opacity="0.55"/>
</svg>
