<svg width="23" height="23" viewBox="0 0 23 23" fill="none" xmlns="http://www.w3.org/2000/svg">
<g clip-path="url(#clip0_1667_5727)">
<path d="M20.6039 3.83325H18.5275V5.11103H20.4442V19.1666H2.55529V5.11103H4.47195V3.83325H2.39556C2.24622 3.83575 2.09882 3.86764 1.9618 3.92711C1.82478 3.98658 1.70082 4.07246 1.59699 4.17984C1.49317 4.28723 1.41151 4.41401 1.3567 4.55296C1.30188 4.69191 1.27497 4.84029 1.27751 4.98964V19.288C1.27497 19.4373 1.30188 19.5857 1.3567 19.7247C1.41151 19.8636 1.49317 19.9904 1.59699 20.0978C1.70082 20.2052 1.82478 20.291 1.9618 20.3505C2.09882 20.41 2.24622 20.4419 2.39556 20.4444H20.6039C20.7532 20.4419 20.9006 20.41 21.0377 20.3505C21.1747 20.291 21.2986 20.2052 21.4025 20.0978C21.5063 19.9904 21.5879 19.8636 21.6428 19.7247C21.6976 19.5857 21.7245 19.4373 21.722 19.288V4.98964C21.7245 4.84029 21.6976 4.69191 21.6428 4.55296C21.5879 4.41401 21.5063 4.28723 21.4025 4.17984C21.2986 4.07246 21.1747 3.98658 21.0377 3.92711C20.9006 3.86764 20.7532 3.83575 20.6039 3.83325Z" fill="#B2ABAB"/>
<path d="M5.11133 8.94434H6.38911V10.2221H5.11133V8.94434Z" fill="#B2ABAB"/>
<path d="M8.94531 8.94434H10.2231V10.2221H8.94531V8.94434Z" fill="#B2ABAB"/>
<path d="M12.7773 8.94434H14.0551V10.2221H12.7773V8.94434Z" fill="#B2ABAB"/>
<path d="M16.6113 8.94434H17.8891V10.2221H16.6113V8.94434Z" fill="#B2ABAB"/>
<path d="M5.11133 12.1389H6.38911V13.4167H5.11133V12.1389Z" fill="#B2ABAB"/>
<path d="M8.94531 12.1389H10.2231V13.4167H8.94531V12.1389Z" fill="#B2ABAB"/>
<path d="M12.7773 12.1389H14.0551V13.4167H12.7773V12.1389Z" fill="#B2ABAB"/>
<path d="M16.6113 12.1389H17.8891V13.4167H16.6113V12.1389Z" fill="#B2ABAB"/>
<path d="M5.11133 15.3333H6.38911V16.611H5.11133V15.3333Z" fill="#B2ABAB"/>
<path d="M8.94531 15.3333H10.2231V16.611H8.94531V15.3333Z" fill="#B2ABAB"/>
<path d="M12.7773 15.3333H14.0551V16.611H12.7773V15.3333Z" fill="#B2ABAB"/>
<path d="M16.6113 15.3333H17.8891V16.611H16.6113V15.3333Z" fill="#B2ABAB"/>
<path d="M6.38889 6.38894C6.55833 6.38894 6.72084 6.32163 6.84065 6.20182C6.96047 6.082 7.02778 5.9195 7.02778 5.75005V1.91672C7.02778 1.74728 6.96047 1.58477 6.84065 1.46496C6.72084 1.34514 6.55833 1.27783 6.38889 1.27783C6.21945 1.27783 6.05694 1.34514 5.93713 1.46496C5.81731 1.58477 5.75 1.74728 5.75 1.91672V5.75005C5.75 5.9195 5.81731 6.082 5.93713 6.20182C6.05694 6.32163 6.21945 6.38894 6.38889 6.38894Z" fill="#B2ABAB"/>
<path d="M16.6115 6.38894C16.781 6.38894 16.9435 6.32163 17.0633 6.20182C17.1831 6.082 17.2504 5.9195 17.2504 5.75005V1.91672C17.2504 1.74728 17.1831 1.58477 17.0633 1.46496C16.9435 1.34514 16.781 1.27783 16.6115 1.27783C16.4421 1.27783 16.2796 1.34514 16.1598 1.46496C16.04 1.58477 15.9727 1.74728 15.9727 1.91672V5.75005C15.9727 5.9195 16.04 6.082 16.1598 6.20182C16.2796 6.32163 16.4421 6.38894 16.6115 6.38894Z" fill="#B2ABAB"/>
<path d="M8.30469 3.83325H14.6936V5.11103H8.30469V3.83325Z" fill="#B2ABAB"/>
</g>
<defs>
<clipPath id="clip0_1667_5727">
<rect width="23" height="23" fill="white"/>
</clipPath>
</defs>
</svg>
