<svg width="29" height="29" viewBox="0 0 29 29" fill="none" xmlns="http://www.w3.org/2000/svg">
<path d="M14.5006 24.3599C9.04862 24.3599 4.64062 19.9519 4.64062 14.4999C4.64062 9.04789 9.04862 4.63989 14.5006 4.63989C19.9526 4.63989 24.3606 9.04789 24.3606 14.4999C24.3606 19.9519 19.9526 24.3599 14.5006 24.3599ZM14.5006 5.79989C9.68662 5.79989 5.80062 9.68589 5.80062 14.4999C5.80062 19.3139 9.68662 23.1999 14.5006 23.1999C19.3146 23.1999 23.2006 19.3139 23.2006 14.4999C23.2006 9.68589 19.3146 5.79989 14.5006 5.79989Z" fill="#B2ABAB"/>
<path d="M9.2793 13.9199H19.7193V15.0799H9.2793V13.9199Z" fill="#B2ABAB"/>
<path d="M13.9199 9.28003H15.0799V19.72H13.9199V9.28003Z" fill="#B2ABAB"/>
</svg>
