<svg width="35" height="27" viewBox="0 0 35 27" fill="none" xmlns="http://www.w3.org/2000/svg">
<path d="M0 5.56054C0 4.08579 0.57617 2.67145 1.60176 1.62865C2.62735 0.585841 4.01835 0 5.46875 0H29.5312C30.9817 0 32.3727 0.585841 33.3982 1.62865C34.4238 2.67145 35 4.08579 35 5.56054V21.1301C35 22.6048 34.4238 24.0192 33.3982 25.062C32.3727 26.1048 30.9817 26.6906 29.5312 26.6906H5.46875C4.01835 26.6906 2.62735 26.1048 1.60176 25.062C0.57617 24.0192 0 22.6048 0 21.1301V5.56054ZM5.46875 2.22422C4.59851 2.22422 3.76391 2.57572 3.14856 3.2014C2.5332 3.82709 2.1875 4.67569 2.1875 5.56054V8.45202H32.8125V5.56054C32.8125 4.67569 32.4668 3.82709 31.8514 3.2014C31.2361 2.57572 30.4015 2.22422 29.5312 2.22422H5.46875ZM2.1875 21.1301C2.1875 22.0149 2.5332 22.8635 3.14856 23.4892C3.76391 24.1149 4.59851 24.4664 5.46875 24.4664H29.5312C30.4015 24.4664 31.2361 24.1149 31.8514 23.4892C32.4668 22.8635 32.8125 22.0149 32.8125 21.1301V10.6762H2.1875V21.1301ZM23.8438 18.2386C23.5537 18.2386 23.2755 18.3557 23.0704 18.5643C22.8652 18.7729 22.75 19.0557 22.75 19.3507C22.75 19.6456 22.8652 19.9285 23.0704 20.1371C23.2755 20.3456 23.5537 20.4628 23.8438 20.4628H28.6562C28.9463 20.4628 29.2245 20.3456 29.4296 20.1371C29.6348 19.9285 29.75 19.6456 29.75 19.3507C29.75 19.0557 29.6348 18.7729 29.4296 18.5643C29.2245 18.3557 28.9463 18.2386 28.6562 18.2386H23.8438Z" fill="#291000" fill-opacity="0.55"/>
</svg>
