<svg width="43" height="28" viewBox="0 0 43 28" fill="none" xmlns="http://www.w3.org/2000/svg">
<rect y="0.666748" width="42.6667" height="26.6667" rx="6" fill="#D9D9D9"/>
<path d="M25.3598 19.2733L21.8482 15.7617C21.7198 15.6333 21.5682 15.61 21.4865 15.61C21.4048 15.61 21.2532 15.6333 21.1248 15.7617L17.6015 19.285C17.2048 19.6817 16.5865 20.3233 14.5215 20.3233L18.8498 24.64C19.5061 25.2954 20.3956 25.6636 21.3232 25.6636C22.2507 25.6636 23.1402 25.2954 23.7965 24.64L28.1365 20.3117C27.0748 20.3117 26.1882 20.1017 25.3598 19.2733ZM17.6015 8.71501L21.1248 12.2383C21.2182 12.3317 21.3582 12.39 21.4865 12.39C21.6148 12.39 21.7548 12.3317 21.8482 12.2383L25.3365 8.75001C26.1648 7.88668 27.1098 7.68835 28.1715 7.68835L23.8315 3.36001C23.1752 2.70458 22.2857 2.33643 21.3582 2.33643C20.4306 2.33643 19.5411 2.70458 18.8848 3.36001L14.5565 7.67668C16.6098 7.67668 17.2398 8.35335 17.6015 8.71501Z" fill="black"/>
<path d="M31.9618 11.4918L29.3368 8.85512H27.8668C27.2368 8.85512 26.6068 9.11179 26.1752 9.56679L22.6752 13.0668C22.3485 13.3935 21.9168 13.5568 21.4852 13.5568C21.0407 13.5505 20.6152 13.3753 20.2952 13.0668L16.7718 9.53179C16.3285 9.08845 15.7218 8.83179 15.0802 8.83179H13.3652L10.6935 11.5151C10.0381 12.1714 9.66992 13.061 9.66992 13.9885C9.66992 14.916 10.0381 15.8055 10.6935 16.4618L13.3652 19.1451H15.0918C15.7218 19.1451 16.3285 18.8885 16.7835 18.4451L20.3068 14.9218C20.6335 14.5951 21.0652 14.4318 21.4968 14.4318C21.9285 14.4318 22.3602 14.5951 22.6868 14.9218L26.1985 18.4335C26.6418 18.8768 27.2485 19.1335 27.8902 19.1335H29.3602L31.9852 16.4968C32.6434 15.8287 33.0104 14.9273 33.006 13.9895C33.0016 13.0517 32.6262 12.1537 31.9618 11.4918Z" fill="black"/>
</svg>
