<svg width="168" height="124" viewBox="0 0 168 124" fill="none" xmlns="http://www.w3.org/2000/svg">
<path d="M139.455 56.8619V108.9C139.455 111.369 138.474 113.736 136.727 115.481C134.98 117.227 132.612 118.208 130.142 118.208H37.8343C35.3684 118.201 33.0056 117.218 31.2642 115.473C29.5227 113.728 28.5447 111.364 28.5448 108.9V56.8619" stroke="#1E1E1E" stroke-miterlimit="10"/>
<path d="M84 123.437C130.116 123.437 167.5 122.364 167.5 121.04C167.5 119.716 130.116 118.643 84 118.643C37.8842 118.643 0.499997 119.716 0.499997 121.04C0.499997 122.364 37.8842 123.437 84 123.437Z" fill="#1E1E1E" stroke="#1E1E1E" stroke-miterlimit="10"/>
<path d="M94.3192 1.04559L157.888 47.2253C158.65 47.777 159.217 48.5558 159.508 49.4498C159.8 50.3439 159.8 51.3072 159.51 52.2015C159.219 53.0957 158.652 53.875 157.891 54.4272C157.129 54.9795 156.212 55.2765 155.272 55.2754H28.1342C27.1934 55.2765 26.2765 54.9795 25.5151 54.4272C24.7536 53.875 24.1869 53.0957 23.8963 52.2015C23.6056 51.3072 23.606 50.3439 23.8974 49.4498C24.1887 48.5558 24.756 47.777 25.5179 47.2253L89.0865 1.04559C89.848 0.495879 90.7635 0.200006 91.7029 0.200006C92.6423 0.200006 93.5577 0.495879 94.3192 1.04559Z" fill="#B21020"/>
<path d="M89.2559 1.35688L152.825 47.5366C153.586 48.0883 154.154 48.8671 154.445 49.7611C154.736 50.6551 154.737 51.6185 154.446 52.5128C154.156 53.407 153.589 54.1863 152.827 54.7385C152.066 55.2908 151.149 55.5878 150.208 55.5867H23.0651C22.1228 55.5915 21.2032 55.2973 20.4389 54.7464C19.6746 54.1955 19.105 53.4163 18.8121 52.5212C18.5192 51.626 18.5182 50.6611 18.8091 49.7653C19.1001 48.8695 19.668 48.0892 20.4311 47.5366L83.9997 1.35688C84.7627 0.800066 85.6831 0.499997 86.6278 0.499997C87.5726 0.499997 88.4929 0.800066 89.2559 1.35688Z" stroke="#1E1E1E" stroke-miterlimit="10"/>
</svg>
