<svg width="103" height="142" viewBox="0 0 103 142" fill="none" xmlns="http://www.w3.org/2000/svg">
<path d="M46.8193 33.5104H34.1367C32.518 33.5104 31.2058 34.8192 31.2058 36.4337V41.578C31.2058 43.1926 32.518 44.5014 34.1367 44.5014H46.8193C48.438 44.5014 49.7502 43.1926 49.7502 41.578V36.4337C49.7502 34.8192 48.438 33.5104 46.8193 33.5104Z" fill="#DBB947"/>
<path d="M30.7394 41.0055C30.7259 41.5605 30.8274 42.1124 31.0374 42.6266C31.6279 43.8424 33.2044 44.1558 34.5372 44.3125L42.3277 45.2473C44.5705 45.5175 47.3118 45.5608 48.5146 43.6587C49.4301 42.2105 48.9588 40.3408 48.9046 38.6332C48.7421 33.6943 52.9353 29.0147 57.8707 28.6202C58.5491 28.5232 59.2411 28.6226 59.8644 28.9066C60.4278 29.2596 60.9083 29.7296 61.273 30.2846C63.883 33.6342 66.9629 36.5915 70.4179 39.0655C72.119 31.5004 67.0806 24.0271 66.826 16.2674C66.7273 15.4639 66.9091 14.651 67.3407 13.9655C67.9174 13.3772 68.6669 12.9873 69.4806 12.8523L77.8833 10.5504L78.0675 1.14255C66.0193 1.85495 53.9403 1.88382 41.8888 1.22901C38.9037 1.0669 35.9295 0.83995 32.939 0.612996C29.9485 0.386041 29.3525 0.213123 29.0437 3.11489C28.4261 8.90223 29.5855 15.4461 29.8564 21.2712C30.1489 27.8385 30.4433 34.4166 30.7394 41.0055Z" stroke="#1E1E1E" stroke-miterlimit="10"/>
<path d="M28.4265 135.721L78.0679 134.943" stroke="#1E1E1E" stroke-miterlimit="10"/>
<path d="M67.5515 1.56938L67.3402 13.9492" stroke="#1E1E1E" stroke-miterlimit="10"/>
<path d="M50.4274 33.2999L30.404 33.5106" stroke="#1E1E1E" stroke-miterlimit="10"/>
<path d="M31.4108 43.1183C21.7539 62.9636 18.5348 85.3166 22.2009 107.071C23.0407 111.961 24.2271 116.797 25.4081 121.596C26.5278 126.178 27.651 130.759 28.7779 135.337" stroke="#1E1E1E" stroke-miterlimit="10"/>
<path d="M77.1638 134.905C77.6135 132.744 78.3774 130.679 79.0329 128.583C84.2555 111.772 82.1751 93.5453 78.0036 76.448C77.8467 75.6195 77.5557 74.822 77.1422 74.0866C76.2212 72.6493 74.5092 71.9846 72.9435 71.32C67.0776 68.7888 61.7791 65.1118 57.3604 60.5059C52.9417 55.8999 49.4922 50.4582 47.2154 44.5015" stroke="#1E1E1E" stroke-miterlimit="10"/>
<path d="M67.5413 13.3116C65.8401 12.9334 64.2149 14.0735 62.8659 15.1705C57.925 19.2016 53.1467 23.7623 50.6384 29.6199C50.0825 30.7562 49.8075 32.0088 49.8366 33.2728" stroke="#1E1E1E" stroke-miterlimit="10"/>
<path d="M53.2926 141.492C77.3428 141.492 96.8393 140.113 96.8393 138.412C96.8393 136.711 77.3428 135.332 53.2926 135.332C29.2425 135.332 9.746 136.711 9.746 138.412C9.746 140.113 29.2425 141.492 53.2926 141.492Z" fill="#1E1E1E"/>
<path d="M7.94854 38.5793C8.22381 38.5793 8.44696 34.9866 8.44696 30.5548C8.44696 26.123 8.22381 22.5304 7.94854 22.5304C7.67327 22.5304 7.45012 26.123 7.45012 30.5548C7.45012 34.9866 7.67327 38.5793 7.94854 38.5793Z" fill="#DBB947"/>
<path d="M7.94761 31.0246C12.337 31.0246 15.8952 30.8141 15.8952 30.5545C15.8952 30.2949 12.337 30.0844 7.94761 30.0844C3.55827 30.0844 0 30.2949 0 30.5545C0 30.8141 3.55827 31.0246 7.94761 31.0246Z" fill="#DBB947"/>
<path d="M18.133 44.28C18.4083 44.28 18.6314 40.6874 18.6314 36.2556C18.6314 31.8238 18.4083 28.2311 18.133 28.2311C17.8577 28.2311 17.6346 31.8238 17.6346 36.2556C17.6346 40.6874 17.8577 44.28 18.133 44.28Z" fill="#DBB947"/>
<path d="M18.1331 36.7258C22.5224 36.7258 26.0807 36.5153 26.0807 36.2557C26.0807 35.996 22.5224 35.7855 18.1331 35.7855C13.7437 35.7855 10.1855 35.996 10.1855 36.2557C10.1855 36.5153 13.7437 36.7258 18.1331 36.7258Z" fill="#DBB947"/>
<path d="M86.1884 67.4941C86.7719 67.4941 87.2449 59.8926 87.2449 50.5158C87.2449 41.1389 86.7719 33.5374 86.1884 33.5374C85.605 33.5374 85.132 41.1389 85.132 50.5158C85.132 59.8926 85.605 67.4941 86.1884 67.4941Z" fill="#DBB947"/>
<path d="M86.1891 51.5099C95.4734 51.5099 103 51.0648 103 50.5157C103 49.9665 95.4734 49.5214 86.1891 49.5214C76.9047 49.5214 69.3782 49.9665 69.3782 50.5157C69.3782 51.0648 76.9047 51.5099 86.1891 51.5099Z" fill="#DBB947"/>
<path d="M66.501 87.0877H37.4464C32.707 87.0877 28.865 90.9199 28.865 95.6471V103.817C28.865 108.545 32.707 112.377 37.4464 112.377H66.501C71.2404 112.377 75.0825 108.545 75.0825 103.817V95.6471C75.0825 90.9199 71.2404 87.0877 66.501 87.0877Z" fill="#DBB947"/>
<path d="M68.1914 87.0877H39.1368C34.3974 87.0877 30.5554 90.9199 30.5554 95.6471V103.817C30.5554 108.545 34.3974 112.377 39.1368 112.377H68.1914C72.9308 112.377 76.7729 108.545 76.7729 103.817V95.6471C76.7729 90.9199 72.9308 87.0877 68.1914 87.0877Z" stroke="#1E1E1E" stroke-miterlimit="10"/>
</svg>
