<svg width="138" height="115" viewBox="0 0 138 115" fill="none" xmlns="http://www.w3.org/2000/svg">
<path d="M21.9344 0.414886H112.324C115.649 0.414886 118.837 1.73733 121.187 4.0913C123.538 6.44526 124.859 9.63792 124.859 12.9669V31.5498H3.14062V19.2354C3.14062 14.2439 5.12068 9.4568 8.6452 5.92728C12.1697 2.39775 16.95 0.414886 21.9344 0.414886Z" fill="#B21020"/>
<path d="M112.127 0.5H13.635C6.38072 0.5 0.5 6.38907 0.5 13.6536V100.547C0.5 107.812 6.38072 113.701 13.635 113.701H112.127C119.381 113.701 125.262 107.812 125.262 100.547V13.6536C125.262 6.38907 119.381 0.5 112.127 0.5Z" stroke="#1E1E1E" stroke-miterlimit="10"/>
<path d="M0.5 32.3732H125.262" stroke="#1E1E1E" stroke-miterlimit="10"/>
<path d="M103.968 112.883C122.486 112.883 137.497 97.8502 137.497 79.3064C137.497 60.7626 122.486 45.7298 103.968 45.7298C85.4509 45.7298 70.4395 60.7626 70.4395 79.3064C70.4395 97.8502 85.4509 112.883 103.968 112.883Z" fill="white" stroke="#1E1E1E" stroke-miterlimit="10"/>
<path d="M87.8848 61.1572L103.968 80.1243" stroke="#1E1E1E" stroke-miterlimit="10"/>
<path d="M133.681 81.9343L103.969 80.1245" stroke="#1E1E1E" stroke-miterlimit="10"/>
</svg>
