<svg width="150" height="150" viewBox="0 0 150 150" fill="none" xmlns="http://www.w3.org/2000/svg">
<path d="M90.9473 66.9556C90.9602 68.4043 91.2905 69.8326 91.9147 71.1401C92.539 72.4475 93.4421 73.6024 94.5607 74.5235C95.6792 75.4446 96.986 76.1095 98.3891 76.4716C99.7922 76.8337 101.258 76.8841 102.682 76.6193C104.107 76.3545 105.456 75.7809 106.636 74.9388C107.815 74.0967 108.795 73.0066 109.508 71.7451C110.221 70.4837 110.648 69.0815 110.761 67.6371C110.873 66.1927 110.668 64.7411 110.159 63.3846H91.6209C91.1783 64.5233 90.9499 65.734 90.9473 66.9556Z" stroke="#1E1E1E" stroke-miterlimit="10"/>
<path d="M79.9585 107.198C78.5932 107.23 77.2492 107.543 76.0106 108.118C74.772 108.693 73.6654 109.517 72.7603 110.54C71.8551 111.562 71.1707 112.76 70.75 114.059C70.3294 115.358 70.1814 116.73 70.3155 118.088C70.4496 119.447 70.8628 120.764 71.5292 121.955C72.1956 123.147 73.1009 124.188 74.1885 125.014C75.276 125.84 76.5224 126.432 77.8495 126.754C79.1766 127.076 80.5559 127.121 81.9011 126.885V107.391C81.2615 107.263 80.6108 107.198 79.9585 107.198Z" stroke="#1E1E1E" stroke-miterlimit="10"/>
<path d="M34.1508 58.451C35.8864 58.4509 37.5915 58.9061 39.0962 59.7709C40.6008 60.6357 41.8522 61.8799 42.7254 63.3794H67.4257V40.9821C65.9152 41.8198 64.2123 42.2487 62.4852 42.2265C60.7581 42.2043 59.0667 41.7317 57.5784 40.8555C56.09 39.9793 54.8562 38.7298 53.999 37.2307C53.1418 35.7315 52.6909 34.0346 52.6909 32.3078C52.6909 30.581 53.1418 28.884 53.999 27.3849C54.8562 25.8857 56.09 24.6363 57.5784 23.7601C59.0667 22.8839 60.7581 22.4113 62.4852 22.3891C64.2123 22.3668 65.9152 22.7958 67.4257 23.6334V0.5H0.5V63.3846H25.5658C26.4393 61.8826 27.692 60.6364 29.1987 59.7705C30.7053 58.9047 32.413 58.4496 34.1508 58.451Z" stroke="#1E1E1E" stroke-miterlimit="10"/>
<path d="M62.5818 22.37C61.0725 22.3816 59.5857 22.7374 58.2346 23.4102C56.8835 24.083 55.7038 25.0551 54.7852 26.2525C53.8666 27.45 53.2334 28.8412 52.9338 30.3202C52.6342 31.7992 52.676 33.3271 53.0561 34.7875C53.4363 36.2479 54.1447 37.6023 55.1274 38.7477C56.1102 39.8931 57.3414 40.7992 58.7273 41.3971C60.1131 41.9949 61.6172 42.2688 63.1249 42.1978C64.6327 42.1268 66.1043 41.7129 67.4279 40.9874V23.6387C65.9483 22.8068 64.2794 22.3699 62.5818 22.37Z" stroke="#1E1E1E" stroke-miterlimit="10"/>
<path d="M72.5225 32.3104C72.5242 34.0797 72.0525 35.8173 71.1563 37.3429C70.2602 38.8686 68.9721 40.1269 67.4258 40.9874V63.3846H91.6195C92.3364 61.5077 93.6064 59.8926 95.2616 58.7532C96.9168 57.6137 98.879 57.0036 100.889 57.0036C102.898 57.0036 104.86 57.6137 106.516 58.7532C108.171 59.8926 109.441 61.5077 110.158 63.3846H134.351V0.5H67.4258V23.6543C68.969 24.513 70.2551 25.768 71.151 27.2897C72.047 28.8114 72.5205 30.5446 72.5225 32.3104Z" stroke="#1E1E1E" stroke-miterlimit="10"/>
<path d="M64.6697 104.775C63.2604 104.757 61.8711 104.438 60.5945 103.841C59.3178 103.244 58.1831 102.382 57.2659 101.312C56.3486 100.242 55.67 98.9888 55.275 97.6361C54.88 96.2834 54.7779 94.8621 54.9753 93.4669C55.1728 92.0717 55.6653 90.7345 56.4201 89.5444C57.1749 88.3544 58.1746 87.3388 59.3527 86.5652C60.5308 85.7917 61.8603 85.2779 63.2525 85.0582C64.6447 84.8385 66.0678 84.9179 67.427 85.2911V63.3637H42.7267C43.6045 64.8711 44.0692 66.5833 44.0739 68.3276C44.0787 70.0719 43.6233 71.7866 42.7537 73.2987C41.884 74.8109 40.631 76.0671 39.1208 76.9406C37.6107 77.8141 35.8968 78.2741 34.1521 78.2741C32.4074 78.2741 30.6936 77.8141 29.1834 76.9406C27.6732 76.0671 26.4202 74.8109 25.5505 73.2987C24.6809 71.7866 24.2255 70.0719 24.2303 68.3276C24.235 66.5833 24.6997 64.8711 25.5775 63.3637H0.511719V126.285H67.427V104.394C66.5306 104.651 65.6022 104.78 64.6697 104.775Z" stroke="#1E1E1E" stroke-miterlimit="10"/>
<path d="M54.7109 94.8347C54.7109 97.4655 55.7563 99.9886 57.617 101.849C59.4777 103.709 62.0014 104.754 64.6328 104.754C65.5661 104.754 66.4945 104.62 67.3901 104.357V85.2911C65.911 84.8633 64.3526 84.7855 62.8382 85.0639C61.3239 85.3424 59.8952 85.9693 58.6651 86.8952C57.435 87.8211 56.4373 89.0205 55.751 90.3985C55.0647 91.7765 54.7086 93.2953 54.7109 94.8347Z" stroke="#1E1E1E" stroke-miterlimit="10"/>
<path d="M24.209 68.3966C24.2178 69.9154 24.5753 71.4119 25.2541 72.7707C25.9328 74.1296 26.9146 75.3145 28.1237 76.234C29.3328 77.1536 30.737 77.7833 32.2281 78.0745C33.7191 78.3658 35.2571 78.3108 36.7235 77.9139C38.1899 77.517 39.5456 76.7887 40.686 75.7853C41.8264 74.7818 42.7211 73.5299 43.3011 72.1261C43.8811 70.7223 44.1309 69.204 44.0312 67.6885C43.9316 66.1729 43.4851 64.7004 42.7263 63.3846H25.5772C24.6808 64.9028 24.2083 66.6336 24.209 68.3966Z" stroke="#1E1E1E" stroke-miterlimit="10"/>
<path d="M125.732 85.688C126.354 87.195 126.596 88.8322 126.435 90.4548C126.274 92.0774 125.716 93.6353 124.809 94.9907C123.902 96.346 122.675 97.457 121.237 98.2254C119.798 98.9937 118.193 99.3956 116.562 99.3956C114.931 99.3956 113.325 98.9937 111.886 98.2254C110.448 97.457 109.221 96.346 108.314 94.9907C107.408 93.6353 106.849 92.0774 106.688 90.4548C106.527 88.8322 106.769 87.195 107.392 85.688H81.9082V107.391C84.1801 107.82 86.2307 109.028 87.7061 110.808C89.1815 112.588 89.9889 114.827 89.9889 117.138C89.9889 119.45 89.1815 121.688 87.7061 123.468C86.2307 125.248 84.1801 126.456 81.9082 126.885V148.588H148.829V85.688H125.732Z" stroke="#1E1E1E" stroke-miterlimit="10"/>
<path d="M46.9362 49.6434H21.3691V62.8625H46.9362V49.6434Z" fill="white"/>
<path d="M77.4101 17.7757H67.7598V46.2187H77.4101V17.7757Z" fill="white"/>
<path d="M110.833 53.7367H88.6914V62.8627H110.833V53.7367Z" fill="white"/>
<path d="M92.0742 104.775H82.4238V133.218H92.0742V104.775Z" fill="white"/>
<path d="M34.1521 77.0006C39.4472 77.0006 43.7398 72.9638 43.7398 67.9842C43.7398 63.0046 39.4472 58.9679 34.1521 58.9679C28.857 58.9679 24.5645 63.0046 24.5645 67.9842C24.5645 72.9638 28.857 77.0006 34.1521 77.0006Z" fill="white"/>
<path d="M64.3142 41.3266C69.6094 41.3266 73.9019 37.2899 73.9019 32.3103C73.9019 27.3307 69.6094 23.294 64.3142 23.294C59.0191 23.294 54.7266 27.3307 54.7266 32.3103C54.7266 37.2899 59.0191 41.3266 64.3142 41.3266Z" fill="white"/>
<path d="M67.4256 103.851C72.7207 103.851 77.0132 99.8143 77.0132 94.8347C77.0132 89.8551 72.7207 85.8184 67.4256 85.8184C62.1304 85.8184 57.8379 89.8551 57.8379 94.8347C57.8379 99.8143 62.1304 103.851 67.4256 103.851Z" fill="white"/>
<path d="M100.889 72.401C105.855 72.401 109.881 68.6167 109.881 63.9485C109.881 59.2803 105.855 55.496 100.889 55.496C95.9225 55.496 91.8965 59.2803 91.8965 63.9485C91.8965 68.6167 95.9225 72.401 100.889 72.401Z" fill="white"/>
<path d="M81.7966 126.682C87.3571 126.682 91.8647 122.442 91.8647 117.211C91.8647 111.981 87.3571 107.741 81.7966 107.741C76.2362 107.741 71.7285 111.981 71.7285 117.211C71.7285 122.442 76.2362 126.682 81.7966 126.682Z" fill="white"/>
<path d="M18.9897 19.5288H44.8296V28.3814H37.2246V46.8213H26.5947V28.3814H18.9897V19.5288Z" fill="#291000"/>
<path d="M106.103 46.8213H95.4731V19.5288H106.103V46.8213Z" fill="#291000"/>
<path d="M15.4673 82.79H19.3809L32.5742 95.1801L46.1265 82.79H49.9033V110.082H38.6753V101.23L31.7026 108.886L24.918 101.435V110.082H15.4673V82.79Z" fill="#291000"/>
<path d="M104.776 108.839H124.446V116.7H115.406V118.939H124.412V125.638H115.406V128.219H125.044V136.131H104.776V108.839Z" fill="#291000"/>
</svg>
