<svg width="193" height="126" viewBox="0 0 193 126" fill="none" xmlns="http://www.w3.org/2000/svg">
<path d="M121.158 14.2485C120.181 11.5259 118.556 9.08164 116.425 7.1263C114.294 5.17095 111.72 3.76313 108.924 3.02409C104.506 1.90912 98.6198 3.54758 97.845 8.04144C97.41 10.5977 98.8645 13.1608 100.815 14.84C102.766 16.5193 105.179 17.6002 107.442 18.8648C111.707 21.2483 115.493 24.4017 118.609 28.1652C122.632 26.1528 126.209 23.3517 129.128 19.9285C132.047 16.5053 134.248 12.5298 135.601 8.2386C136.28 6.03586 136.606 3.31643 134.921 1.72556C132.522 -0.56556 128.566 1.56239 126.337 4.02348C123.016 7.69973 120.571 12.0813 119.187 16.8388L118.024 13.8746" fill="#B21020"/>
<path d="M88.8527 56.1414C87.0343 54.8443 85.4035 53.3023 84.0067 51.5592C80.2957 47.7655 72.7309 47.0109 70.3453 51.294C63.7117 62.0562 78.9975 65.571 86.1544 69.8065C86.9508 70.1302 87.8272 70.202 88.6656 70.0124C89.5041 69.8228 90.2644 69.3808 90.8441 68.746C94.3648 61.6414 102.113 56.2434 100.101 48.221C99.2652 46.2427 95.8193 45.8347 93.8958 47.3576C90.6198 48.9825 89.5392 52.477 89.009 56.019" fill="#B21020"/>
<path d="M87.8537 56.2159C86.0394 54.9189 84.4112 53.3795 83.0145 51.6404C79.3035 47.8468 71.7388 47.0922 69.3599 51.3753C62.7196 62.1374 78.0053 65.6523 85.1623 69.881C85.9575 70.2084 86.8343 70.2829 87.6734 70.0944C88.5124 69.9058 89.2731 69.4634 89.852 68.8272C93.3727 61.7227 101.121 56.3247 99.1159 48.3023C98.2731 46.324 94.8272 45.916 92.9037 47.4321C89.6277 49.0638 88.547 52.5582 88.0169 56.1003" stroke="#1E1E1E" stroke-width="0.5" stroke-miterlimit="10"/>
<path d="M120.111 13.7453C119.135 11.0218 117.512 8.57668 115.38 6.62112C113.249 4.66556 110.673 3.25831 107.877 2.52086C103.459 1.4059 97.5729 3.04435 96.7981 7.53821C96.3631 10.0945 97.8176 12.6575 99.7682 14.3368C101.719 16.016 104.132 17.1038 106.395 18.3683C110.661 20.7495 114.448 23.9033 117.562 27.6688C121.584 25.6548 125.16 22.8532 128.079 19.4302C130.998 16.0072 133.2 12.0325 134.554 7.74217C135.233 5.53943 135.56 2.82 133.874 1.22913C131.475 -1.06199 127.519 1.06597 125.29 3.52026C121.969 7.19903 119.524 11.5829 118.14 16.3424L116.998 13.3986" stroke="#1E1E1E" stroke-width="0.5" stroke-miterlimit="10"/>
<path d="M165.716 72.7908C163.79 70.6297 161.367 68.9703 158.657 67.9563C155.946 66.9423 153.029 66.6042 150.158 66.9713C145.638 67.5899 140.792 71.3156 141.764 75.7754C142.315 78.3045 144.619 80.1401 147.066 80.9899C149.513 81.8397 152.15 81.9145 154.726 82.2409C159.571 82.8509 164.261 84.3563 168.557 86.6803C171.536 83.3078 173.806 79.3709 175.234 75.1034C176.662 70.836 177.218 66.3249 176.869 61.8383C176.679 59.5472 175.958 56.9026 173.824 56.0459C170.745 54.8222 167.87 58.2759 166.729 61.3896C165.02 66.0441 164.393 71.0262 164.893 75.959L162.705 73.6475" fill="#B21020"/>
<path d="M164.575 72.7162C162.649 70.5564 160.225 68.898 157.515 67.8841C154.805 66.8702 151.888 66.5313 149.018 66.8966C144.498 67.522 139.652 71.2477 140.624 75.7347C141.174 78.2638 143.478 80.0926 145.925 80.9424C148.372 81.7923 151.009 81.8738 153.585 82.1934C158.43 82.8068 163.119 84.312 167.416 86.6328C170.396 83.2597 172.668 79.3217 174.096 75.053C175.524 70.7842 176.079 66.2718 175.729 61.784C175.538 59.4929 174.818 56.8415 172.684 55.9917C169.605 54.7611 166.73 58.2216 165.588 61.3353C163.879 65.9871 163.253 70.9678 163.76 75.8979L161.564 73.5864" stroke="#1E1E1E" stroke-width="0.5" stroke-miterlimit="10"/>
<path d="M0 125.371H192.999" stroke="#1E1E1E" stroke-miterlimit="10"/>
<path d="M123.4 125.194C124.12 119.497 124.814 113.528 122.775 108.164C122.095 106.349 121.082 104.595 121.014 102.657C120.926 100.271 122.272 98.1021 123.488 96.0489C127.492 89.2979 130.706 81.9486 131.76 74.1711C132.961 65.0752 131.184 55.8349 126.696 47.8334C128.188 59.9676 125.978 72.2696 120.355 83.1248C117.908 87.8294 114.238 92.6088 108.957 93.3227C105.062 93.8597 101.283 92.0037 97.4026 91.2151C92.1011 90.1341 86.6162 91.0723 81.2876 92.0105C76.1221 92.9215 70.9158 93.8393 66.0426 95.7633C58.7362 98.6527 52.4492 103.663 46.5701 108.844C40.5074 114.142 34.6872 119.688 29.1094 125.48" stroke="#1E1E1E" stroke-miterlimit="10"/>
<path d="M134.133 46.9157C134.335 47.4295 134.703 47.8605 135.179 48.1394C136.831 49.4556 137.914 51.3566 138.204 53.4491" stroke="#1E1E1E" stroke-miterlimit="10"/>
<path d="M132.902 41.062C137.313 43.9038 140.977 48.3297 141.738 53.5238" stroke="#1E1E1E" stroke-miterlimit="10"/>
</svg>
